%TF.GenerationSoftware,KiCad,Pcbnew,9.0.6*%
%TF.CreationDate,2025-12-13T19:58:55+05:30*%
%TF.ProjectId,Assignment1,41737369-676e-46d6-956e-74312e6b6963,rev?*%
%TF.SameCoordinates,Original*%
%TF.FileFunction,Copper,L1,Top*%
%TF.FilePolarity,Positive*%
%FSLAX46Y46*%
G04 Gerber Fmt 4.6, Leading zero omitted, Abs format (unit mm)*
G04 Created by KiCad (PCBNEW 9.0.6) date 2025-12-13 19:58:55*
%MOMM*%
%LPD*%
G01*
G04 APERTURE LIST*
%TA.AperFunction,ComponentPad*%
%ADD10C,1.400000*%
%TD*%
%TA.AperFunction,ComponentPad*%
%ADD11R,1.700000X1.700000*%
%TD*%
%TA.AperFunction,SMDPad,CuDef*%
%ADD12R,0.250000X0.675000*%
%TD*%
%TA.AperFunction,SMDPad,CuDef*%
%ADD13R,0.675000X0.250000*%
%TD*%
%TA.AperFunction,ComponentPad*%
%ADD14C,1.600000*%
%TD*%
%TA.AperFunction,ViaPad*%
%ADD15C,0.600000*%
%TD*%
%TA.AperFunction,Conductor*%
%ADD16C,0.200000*%
%TD*%
G04 APERTURE END LIST*
D10*
%TO.P,R2,2*%
%TO.N,Net-(SCx1-Pin_1)*%
X180340000Y-73660000D03*
%TO.P,R2,1*%
%TO.N,VCC*%
X175260000Y-73660000D03*
%TD*%
D11*
%TO.P,GND,1,Pin_1*%
%TO.N,GND*%
X170180000Y-58420000D03*
%TD*%
%TO.P,SDA,1,Pin_1*%
%TO.N,Net-(SDx1-Pin_1)*%
X187960000Y-68580000D03*
%TD*%
%TO.P,SCL,1,Pin_1*%
%TO.N,Net-(SCx1-Pin_1)*%
X187960000Y-63500000D03*
%TD*%
D12*
%TO.P,U1,1,SDO*%
%TO.N,Net-(SDO1-Pin_1)*%
X182367500Y-67567500D03*
%TO.P,U1,2,ASDx*%
%TO.N,unconnected-(U1-ASDx-Pad2)*%
X181867500Y-67567500D03*
%TO.P,U1,3,ASCx*%
%TO.N,unconnected-(U1-ASCx-Pad3)*%
X181367500Y-67567500D03*
%TO.P,U1,4,INT1*%
%TO.N,Net-(INT1-Pin_1)*%
X180867500Y-67567500D03*
D13*
%TO.P,U1,5,VDDIO*%
%TO.N,VCC*%
X180605000Y-68330000D03*
%TO.P,U1,6,GNDIO*%
%TO.N,GND*%
X180605000Y-68830000D03*
%TO.P,U1,7,GND*%
X180605000Y-69330000D03*
D12*
%TO.P,U1,8,VDD*%
%TO.N,VCC*%
X180867500Y-70092500D03*
%TO.P,U1,9,INT2*%
%TO.N,Net-(INT2-Pin_1)*%
X181367500Y-70092500D03*
%TO.P,U1,10,OCSB*%
%TO.N,unconnected-(U1-OCSB-Pad10)*%
X181867500Y-70092500D03*
%TO.P,U1,11,OSDO*%
%TO.N,unconnected-(U1-OSDO-Pad11)*%
X182367500Y-70092500D03*
D13*
%TO.P,U1,12,CSB*%
%TO.N,unconnected-(U1-CSB-Pad12)*%
X182630000Y-69330000D03*
%TO.P,U1,13,SCx*%
%TO.N,Net-(SCx1-Pin_1)*%
X182630000Y-68830000D03*
%TO.P,U1,14,SDx*%
%TO.N,Net-(SDx1-Pin_1)*%
X182630000Y-68330000D03*
%TD*%
D10*
%TO.P,R1,1*%
%TO.N,VCC*%
X182880000Y-73660000D03*
%TO.P,R1,2*%
%TO.N,Net-(SDx1-Pin_1)*%
X187960000Y-73660000D03*
%TD*%
D14*
%TO.P,C1,1*%
%TO.N,VCC*%
X175300000Y-83820000D03*
%TO.P,C1,2*%
%TO.N,GND*%
X177800000Y-83820000D03*
%TD*%
D11*
%TO.P,VCC,1,Pin_1*%
%TO.N,VCC*%
X170180000Y-63500000D03*
%TD*%
%TO.P,SDO,1,Pin_1*%
%TO.N,Net-(SDO1-Pin_1)*%
X187960000Y-58420000D03*
%TD*%
D14*
%TO.P,C2,1*%
%TO.N,GND*%
X185460000Y-83820000D03*
%TO.P,C2,2*%
%TO.N,VCC*%
X187960000Y-83820000D03*
%TD*%
D11*
%TO.P,INT2,1,Pin_1*%
%TO.N,Net-(INT2-Pin_1)*%
X170180000Y-73660000D03*
%TD*%
%TO.P,INT1,1,Pin_1*%
%TO.N,Net-(INT1-Pin_1)*%
X170180000Y-68580000D03*
%TD*%
D15*
%TO.N,GND*%
X181560000Y-68540000D03*
X177420000Y-66440000D03*
%TO.N,VCC*%
X178850000Y-70131000D03*
X182764265Y-72084265D03*
%TD*%
D16*
%TO.N,GND*%
X177420000Y-65660000D02*
X177420000Y-66440000D01*
X170180000Y-58420000D02*
X177420000Y-65660000D01*
X181560000Y-68540000D02*
X181395000Y-68540000D01*
X181395000Y-68540000D02*
X180605000Y-69330000D01*
%TO.N,Net-(SDO1-Pin_1)*%
X187960000Y-58420000D02*
X182367500Y-64012500D01*
X182367500Y-64012500D02*
X182367500Y-67567500D01*
%TO.N,Net-(SCx1-Pin_1)*%
X187960000Y-63500000D02*
X189111000Y-64651000D01*
X187545372Y-74661000D02*
X183268500Y-70384128D01*
X189111000Y-64651000D02*
X189111000Y-73924628D01*
X189111000Y-73924628D02*
X188374628Y-74661000D01*
X188374628Y-74661000D02*
X187545372Y-74661000D01*
X183268500Y-70384128D02*
X183268500Y-68904000D01*
%TO.N,Net-(SDx1-Pin_1)*%
X187960000Y-68580000D02*
X187710000Y-68330000D01*
X187710000Y-68330000D02*
X182630000Y-68330000D01*
X187960000Y-68580000D02*
X187960000Y-73660000D01*
%TO.N,VCC*%
X182880000Y-73660000D02*
X182880000Y-72200000D01*
X178888500Y-70092500D02*
X180303000Y-70092500D01*
X182880000Y-72200000D02*
X182764265Y-72084265D01*
X178850000Y-70131000D02*
X178888500Y-70092500D01*
%TO.N,GND*%
X180605000Y-69330000D02*
X180605000Y-68830000D01*
%TO.N,VCC*%
X180867500Y-70092500D02*
X180303000Y-70092500D01*
X180040500Y-68330000D02*
X180605000Y-68330000D01*
X180303000Y-70092500D02*
X179966500Y-69756000D01*
X179966500Y-69756000D02*
X179966500Y-68404000D01*
X179966500Y-68404000D02*
X180040500Y-68330000D01*
%TO.N,Net-(SCx1-Pin_1)*%
X180340000Y-73660000D02*
X183268500Y-70731500D01*
X183268500Y-70731500D02*
X183268500Y-68904000D01*
X183268500Y-68904000D02*
X183194500Y-68830000D01*
X183194500Y-68830000D02*
X182630000Y-68830000D01*
%TO.N,Net-(INT2-Pin_1)*%
X170180000Y-73660000D02*
X173109000Y-70731000D01*
X173109000Y-70731000D02*
X181293500Y-70731000D01*
X181367500Y-70657000D02*
X181367500Y-70092500D01*
X181293500Y-70731000D02*
X181367500Y-70657000D01*
%TO.N,Net-(INT1-Pin_1)*%
X170180000Y-68580000D02*
X171192500Y-67567500D01*
X171192500Y-67567500D02*
X180867500Y-67567500D01*
%TD*%
%TA.AperFunction,Conductor*%
%TO.N,GND*%
G36*
X181635014Y-68399090D02*
G01*
X181635017Y-68399091D01*
X181683197Y-68404271D01*
X181711547Y-68416014D01*
X181740662Y-68425705D01*
X181743526Y-68429260D01*
X181747746Y-68431008D01*
X181765247Y-68456215D01*
X181784502Y-68480110D01*
X181786050Y-68486178D01*
X181787594Y-68488401D01*
X181793230Y-68514308D01*
X181798867Y-68566751D01*
X181798867Y-68593257D01*
X181798409Y-68597516D01*
X181798409Y-68597517D01*
X181792000Y-68657127D01*
X181792000Y-68657132D01*
X181792000Y-68657133D01*
X181792000Y-69002869D01*
X181792001Y-69002879D01*
X181798867Y-69066751D01*
X181798867Y-69093257D01*
X181798409Y-69097516D01*
X181798409Y-69097517D01*
X181793228Y-69145696D01*
X181766492Y-69210245D01*
X181709100Y-69250094D01*
X181683192Y-69255730D01*
X181630748Y-69261367D01*
X181604242Y-69261367D01*
X181599983Y-69260909D01*
X181551294Y-69255674D01*
X181486744Y-69228937D01*
X181446896Y-69171545D01*
X181441261Y-69145642D01*
X181435628Y-69093257D01*
X181435628Y-69066743D01*
X181442499Y-69002841D01*
X181442500Y-69002827D01*
X181442500Y-68955000D01*
X181441127Y-68955000D01*
X181428207Y-68951206D01*
X181414776Y-68952168D01*
X181395335Y-68941554D01*
X181374088Y-68935315D01*
X181365270Y-68925139D01*
X181353451Y-68918686D01*
X181342834Y-68899247D01*
X181328333Y-68882511D01*
X181326416Y-68869184D01*
X181319962Y-68857365D01*
X181321540Y-68835273D01*
X181318389Y-68813353D01*
X181324091Y-68799584D01*
X181324943Y-68787673D01*
X181341856Y-68756695D01*
X181343353Y-68754695D01*
X181399284Y-68712821D01*
X181442472Y-68705027D01*
X181442500Y-68705000D01*
X181442500Y-68657172D01*
X181442499Y-68657160D01*
X181435880Y-68595604D01*
X181435880Y-68569089D01*
X181436590Y-68562485D01*
X181436591Y-68562483D01*
X181441771Y-68514301D01*
X181468510Y-68449751D01*
X181525903Y-68409904D01*
X181551799Y-68404270D01*
X181599983Y-68399091D01*
X181599986Y-68399089D01*
X181604245Y-68398632D01*
X181630753Y-68398632D01*
X181635014Y-68399090D01*
G37*
%TD.AperFunction*%
%TA.AperFunction,Conductor*%
G36*
X190043736Y-53840726D02*
G01*
X190333796Y-53858271D01*
X190348659Y-53860076D01*
X190630798Y-53911780D01*
X190645335Y-53915363D01*
X190919172Y-54000695D01*
X190933163Y-54006000D01*
X191194743Y-54123727D01*
X191207989Y-54130680D01*
X191453465Y-54279075D01*
X191465776Y-54287573D01*
X191691573Y-54464473D01*
X191702781Y-54474403D01*
X191905596Y-54677218D01*
X191915526Y-54688426D01*
X192035481Y-54841538D01*
X192092422Y-54914217D01*
X192100928Y-54926540D01*
X192249316Y-55172004D01*
X192256275Y-55185263D01*
X192373997Y-55446831D01*
X192379306Y-55460832D01*
X192464635Y-55734663D01*
X192468219Y-55749201D01*
X192519923Y-56031340D01*
X192521728Y-56046205D01*
X192539274Y-56336263D01*
X192539500Y-56343750D01*
X192539500Y-88436249D01*
X192539274Y-88443736D01*
X192521728Y-88733794D01*
X192519923Y-88748659D01*
X192468219Y-89030798D01*
X192464635Y-89045336D01*
X192379306Y-89319167D01*
X192373997Y-89333168D01*
X192256275Y-89594736D01*
X192249316Y-89607995D01*
X192100928Y-89853459D01*
X192092422Y-89865782D01*
X191915526Y-90091573D01*
X191905596Y-90102781D01*
X191702781Y-90305596D01*
X191691573Y-90315526D01*
X191465782Y-90492422D01*
X191453459Y-90500928D01*
X191207995Y-90649316D01*
X191194736Y-90656275D01*
X190933168Y-90773997D01*
X190919167Y-90779306D01*
X190645336Y-90864635D01*
X190630798Y-90868219D01*
X190348659Y-90919923D01*
X190333794Y-90921728D01*
X190043736Y-90939274D01*
X190036249Y-90939500D01*
X168103751Y-90939500D01*
X168096264Y-90939274D01*
X167806205Y-90921728D01*
X167791340Y-90919923D01*
X167509201Y-90868219D01*
X167494663Y-90864635D01*
X167220832Y-90779306D01*
X167206831Y-90773997D01*
X166945263Y-90656275D01*
X166932004Y-90649316D01*
X166686540Y-90500928D01*
X166674217Y-90492422D01*
X166448426Y-90315526D01*
X166437218Y-90305596D01*
X166234403Y-90102781D01*
X166224473Y-90091573D01*
X166047573Y-89865776D01*
X166039075Y-89853465D01*
X165890680Y-89607989D01*
X165883727Y-89594743D01*
X165766000Y-89333163D01*
X165760693Y-89319167D01*
X165675364Y-89045336D01*
X165671780Y-89030798D01*
X165620076Y-88748659D01*
X165618271Y-88733794D01*
X165600726Y-88443736D01*
X165600500Y-88436249D01*
X165600500Y-83717648D01*
X173999500Y-83717648D01*
X173999500Y-83922351D01*
X174031522Y-84124534D01*
X174094781Y-84319223D01*
X174134323Y-84396827D01*
X174187585Y-84501359D01*
X174187715Y-84501613D01*
X174308028Y-84667213D01*
X174452786Y-84811971D01*
X174573226Y-84899474D01*
X174618390Y-84932287D01*
X174734607Y-84991503D01*
X174800776Y-85025218D01*
X174800778Y-85025218D01*
X174800781Y-85025220D01*
X174905137Y-85059127D01*
X174995465Y-85088477D01*
X175096557Y-85104488D01*
X175197648Y-85120500D01*
X175197649Y-85120500D01*
X175402351Y-85120500D01*
X175402352Y-85120500D01*
X175604534Y-85088477D01*
X175799219Y-85025220D01*
X175981610Y-84932287D01*
X176074590Y-84864732D01*
X176147213Y-84811971D01*
X176147215Y-84811968D01*
X176147219Y-84811966D01*
X176291966Y-84667219D01*
X176291968Y-84667215D01*
X176291971Y-84667213D01*
X176412286Y-84501611D01*
X176412415Y-84501359D01*
X176439795Y-84447621D01*
X176487769Y-84396826D01*
X176555589Y-84380030D01*
X176621725Y-84402567D01*
X176660765Y-84447621D01*
X176688141Y-84501350D01*
X176688147Y-84501359D01*
X176720523Y-84545921D01*
X176720524Y-84545922D01*
X177400000Y-83866446D01*
X177400000Y-83872661D01*
X177427259Y-83974394D01*
X177479920Y-84065606D01*
X177554394Y-84140080D01*
X177645606Y-84192741D01*
X177747339Y-84220000D01*
X177753553Y-84220000D01*
X177074076Y-84899474D01*
X177118650Y-84931859D01*
X177300968Y-85024755D01*
X177495582Y-85087990D01*
X177697683Y-85120000D01*
X177902317Y-85120000D01*
X178104417Y-85087990D01*
X178299031Y-85024755D01*
X178481349Y-84931859D01*
X178525921Y-84899474D01*
X177846447Y-84220000D01*
X177852661Y-84220000D01*
X177954394Y-84192741D01*
X178045606Y-84140080D01*
X178120080Y-84065606D01*
X178172741Y-83974394D01*
X178200000Y-83872661D01*
X178200000Y-83866447D01*
X178879474Y-84545921D01*
X178911859Y-84501349D01*
X179004755Y-84319031D01*
X179067990Y-84124417D01*
X179100000Y-83922317D01*
X179100000Y-83717682D01*
X184160000Y-83717682D01*
X184160000Y-83922317D01*
X184192009Y-84124417D01*
X184255244Y-84319031D01*
X184348141Y-84501350D01*
X184348147Y-84501359D01*
X184380523Y-84545921D01*
X184380524Y-84545922D01*
X185060000Y-83866446D01*
X185060000Y-83872661D01*
X185087259Y-83974394D01*
X185139920Y-84065606D01*
X185214394Y-84140080D01*
X185305606Y-84192741D01*
X185407339Y-84220000D01*
X185413553Y-84220000D01*
X184734076Y-84899474D01*
X184778650Y-84931859D01*
X184960968Y-85024755D01*
X185155582Y-85087990D01*
X185357683Y-85120000D01*
X185562317Y-85120000D01*
X185764417Y-85087990D01*
X185959031Y-85024755D01*
X186141349Y-84931859D01*
X186185921Y-84899474D01*
X185506447Y-84220000D01*
X185512661Y-84220000D01*
X185614394Y-84192741D01*
X185705606Y-84140080D01*
X185780080Y-84065606D01*
X185832741Y-83974394D01*
X185860000Y-83872661D01*
X185860000Y-83866447D01*
X186539474Y-84545921D01*
X186571859Y-84501349D01*
X186599233Y-84447624D01*
X186647207Y-84396827D01*
X186715028Y-84380031D01*
X186781163Y-84402567D01*
X186820203Y-84447621D01*
X186847713Y-84501611D01*
X186968028Y-84667213D01*
X187112786Y-84811971D01*
X187233226Y-84899474D01*
X187278390Y-84932287D01*
X187394607Y-84991503D01*
X187460776Y-85025218D01*
X187460778Y-85025218D01*
X187460781Y-85025220D01*
X187565137Y-85059127D01*
X187655465Y-85088477D01*
X187756557Y-85104488D01*
X187857648Y-85120500D01*
X187857649Y-85120500D01*
X188062351Y-85120500D01*
X188062352Y-85120500D01*
X188264534Y-85088477D01*
X188459219Y-85025220D01*
X188641610Y-84932287D01*
X188734590Y-84864732D01*
X188807213Y-84811971D01*
X188807215Y-84811968D01*
X188807219Y-84811966D01*
X188951966Y-84667219D01*
X188951968Y-84667215D01*
X188951971Y-84667213D01*
X189004732Y-84594590D01*
X189072287Y-84501610D01*
X189165220Y-84319219D01*
X189228477Y-84124534D01*
X189260500Y-83922352D01*
X189260500Y-83717648D01*
X189252257Y-83665606D01*
X189228477Y-83515465D01*
X189197458Y-83420000D01*
X189165220Y-83320781D01*
X189165218Y-83320778D01*
X189165218Y-83320776D01*
X189122750Y-83237429D01*
X189072287Y-83138390D01*
X189040092Y-83094077D01*
X188951971Y-82972786D01*
X188807213Y-82828028D01*
X188641613Y-82707715D01*
X188641612Y-82707714D01*
X188641610Y-82707713D01*
X188584653Y-82678691D01*
X188459223Y-82614781D01*
X188264534Y-82551522D01*
X188089995Y-82523878D01*
X188062352Y-82519500D01*
X187857648Y-82519500D01*
X187833329Y-82523351D01*
X187655465Y-82551522D01*
X187460776Y-82614781D01*
X187278386Y-82707715D01*
X187112786Y-82828028D01*
X186968028Y-82972786D01*
X186847714Y-83138386D01*
X186820203Y-83192379D01*
X186772227Y-83243174D01*
X186704406Y-83259968D01*
X186638272Y-83237429D01*
X186599234Y-83192376D01*
X186571861Y-83138652D01*
X186539474Y-83094077D01*
X186539474Y-83094076D01*
X185860000Y-83773551D01*
X185860000Y-83767339D01*
X185832741Y-83665606D01*
X185780080Y-83574394D01*
X185705606Y-83499920D01*
X185614394Y-83447259D01*
X185512661Y-83420000D01*
X185506446Y-83420000D01*
X186185922Y-82740524D01*
X186185921Y-82740523D01*
X186141359Y-82708147D01*
X186141350Y-82708141D01*
X185959031Y-82615244D01*
X185764417Y-82552009D01*
X185562317Y-82520000D01*
X185357683Y-82520000D01*
X185155582Y-82552009D01*
X184960968Y-82615244D01*
X184778644Y-82708143D01*
X184734077Y-82740523D01*
X184734077Y-82740524D01*
X185413554Y-83420000D01*
X185407339Y-83420000D01*
X185305606Y-83447259D01*
X185214394Y-83499920D01*
X185139920Y-83574394D01*
X185087259Y-83665606D01*
X185060000Y-83767339D01*
X185060000Y-83773553D01*
X184380524Y-83094077D01*
X184380523Y-83094077D01*
X184348143Y-83138644D01*
X184255244Y-83320968D01*
X184192009Y-83515582D01*
X184160000Y-83717682D01*
X179100000Y-83717682D01*
X179067990Y-83515582D01*
X179004755Y-83320968D01*
X178911859Y-83138650D01*
X178879474Y-83094077D01*
X178879474Y-83094076D01*
X178200000Y-83773551D01*
X178200000Y-83767339D01*
X178172741Y-83665606D01*
X178120080Y-83574394D01*
X178045606Y-83499920D01*
X177954394Y-83447259D01*
X177852661Y-83420000D01*
X177846446Y-83420000D01*
X178525922Y-82740524D01*
X178525921Y-82740523D01*
X178481359Y-82708147D01*
X178481350Y-82708141D01*
X178299031Y-82615244D01*
X178104417Y-82552009D01*
X177902317Y-82520000D01*
X177697683Y-82520000D01*
X177495582Y-82552009D01*
X177300968Y-82615244D01*
X177118644Y-82708143D01*
X177074077Y-82740523D01*
X177074077Y-82740524D01*
X177753554Y-83420000D01*
X177747339Y-83420000D01*
X177645606Y-83447259D01*
X177554394Y-83499920D01*
X177479920Y-83574394D01*
X177427259Y-83665606D01*
X177400000Y-83767339D01*
X177400000Y-83773553D01*
X176720524Y-83094077D01*
X176720523Y-83094077D01*
X176688143Y-83138644D01*
X176660765Y-83192378D01*
X176612790Y-83243174D01*
X176544969Y-83259969D01*
X176478834Y-83237431D01*
X176439795Y-83192378D01*
X176412284Y-83138385D01*
X176291971Y-82972786D01*
X176147213Y-82828028D01*
X175981613Y-82707715D01*
X175981612Y-82707714D01*
X175981610Y-82707713D01*
X175924653Y-82678691D01*
X175799223Y-82614781D01*
X175604534Y-82551522D01*
X175429995Y-82523878D01*
X175402352Y-82519500D01*
X175197648Y-82519500D01*
X175173329Y-82523351D01*
X174995465Y-82551522D01*
X174800776Y-82614781D01*
X174618386Y-82707715D01*
X174452786Y-82828028D01*
X174308028Y-82972786D01*
X174187715Y-83138386D01*
X174094781Y-83320776D01*
X174031522Y-83515465D01*
X173999500Y-83717648D01*
X165600500Y-83717648D01*
X165600500Y-67682135D01*
X168829500Y-67682135D01*
X168829500Y-69477870D01*
X168829501Y-69477876D01*
X168835908Y-69537483D01*
X168886202Y-69672328D01*
X168886206Y-69672335D01*
X168972452Y-69787544D01*
X168972455Y-69787547D01*
X169087664Y-69873793D01*
X169087671Y-69873797D01*
X169222517Y-69924091D01*
X169222516Y-69924091D01*
X169229444Y-69924835D01*
X169282127Y-69930500D01*
X171077872Y-69930499D01*
X171137483Y-69924091D01*
X171272331Y-69873796D01*
X171387546Y-69787546D01*
X171473796Y-69672331D01*
X171524091Y-69537483D01*
X171530500Y-69477873D01*
X171530499Y-68291999D01*
X171550184Y-68224961D01*
X171602987Y-68179206D01*
X171654499Y-68168000D01*
X179246452Y-68168000D01*
X179313491Y-68187685D01*
X179359246Y-68240489D01*
X179370422Y-68294745D01*
X179370091Y-68309669D01*
X179365999Y-68324943D01*
X179365999Y-68483057D01*
X179366000Y-68483060D01*
X179366000Y-68494449D01*
X179366000Y-69292699D01*
X179346315Y-69359738D01*
X179293511Y-69405493D01*
X179224353Y-69415437D01*
X179194549Y-69407261D01*
X179118665Y-69375830D01*
X179083497Y-69361263D01*
X179083493Y-69361262D01*
X179083489Y-69361261D01*
X178928845Y-69330500D01*
X178928842Y-69330500D01*
X178771158Y-69330500D01*
X178771155Y-69330500D01*
X178616510Y-69361261D01*
X178616498Y-69361264D01*
X178470827Y-69421602D01*
X178470814Y-69421609D01*
X178339711Y-69509210D01*
X178339707Y-69509213D01*
X178228213Y-69620707D01*
X178228210Y-69620711D01*
X178140609Y-69751814D01*
X178140602Y-69751827D01*
X178080264Y-69897498D01*
X178080261Y-69897508D01*
X178053769Y-70030692D01*
X178021384Y-70092603D01*
X177960668Y-70127177D01*
X177932152Y-70130500D01*
X173195670Y-70130500D01*
X173195654Y-70130499D01*
X173188058Y-70130499D01*
X173029943Y-70130499D01*
X172953579Y-70150961D01*
X172877214Y-70171423D01*
X172877209Y-70171426D01*
X172740290Y-70250475D01*
X172740282Y-70250481D01*
X170717582Y-72273181D01*
X170656259Y-72306666D01*
X170629901Y-72309500D01*
X169282129Y-72309500D01*
X169282123Y-72309501D01*
X169222516Y-72315908D01*
X169087671Y-72366202D01*
X169087664Y-72366206D01*
X168972455Y-72452452D01*
X168972452Y-72452455D01*
X168886206Y-72567664D01*
X168886202Y-72567671D01*
X168835908Y-72702517D01*
X168829501Y-72762116D01*
X168829500Y-72762135D01*
X168829500Y-74557870D01*
X168829501Y-74557876D01*
X168835908Y-74617483D01*
X168886202Y-74752328D01*
X168886206Y-74752335D01*
X168972452Y-74867544D01*
X168972455Y-74867547D01*
X169087664Y-74953793D01*
X169087671Y-74953797D01*
X169222517Y-75004091D01*
X169222516Y-75004091D01*
X169229444Y-75004835D01*
X169282127Y-75010500D01*
X171077872Y-75010499D01*
X171137483Y-75004091D01*
X171272331Y-74953796D01*
X171387546Y-74867546D01*
X171473796Y-74752331D01*
X171524091Y-74617483D01*
X171530500Y-74557873D01*
X171530499Y-73565513D01*
X174059500Y-73565513D01*
X174059500Y-73754486D01*
X174089059Y-73941118D01*
X174147454Y-74120836D01*
X174233240Y-74289199D01*
X174344310Y-74442073D01*
X174477927Y-74575690D01*
X174630801Y-74686760D01*
X174710347Y-74727290D01*
X174799163Y-74772545D01*
X174799165Y-74772545D01*
X174799168Y-74772547D01*
X174895497Y-74803846D01*
X174978881Y-74830940D01*
X175165514Y-74860500D01*
X175165519Y-74860500D01*
X175354486Y-74860500D01*
X175541118Y-74830940D01*
X175720832Y-74772547D01*
X175889199Y-74686760D01*
X176042073Y-74575690D01*
X176175690Y-74442073D01*
X176286760Y-74289199D01*
X176372547Y-74120832D01*
X176430940Y-73941118D01*
X176446073Y-73845571D01*
X176460500Y-73754486D01*
X176460500Y-73565513D01*
X176430940Y-73378881D01*
X176372545Y-73199163D01*
X176301522Y-73059774D01*
X176286760Y-73030801D01*
X176175690Y-72877927D01*
X176042073Y-72744310D01*
X175889199Y-72633240D01*
X175860500Y-72618617D01*
X175720836Y-72547454D01*
X175541118Y-72489059D01*
X175354486Y-72459500D01*
X175354481Y-72459500D01*
X175165519Y-72459500D01*
X175165514Y-72459500D01*
X174978881Y-72489059D01*
X174799163Y-72547454D01*
X174630800Y-72633240D01*
X174543579Y-72696610D01*
X174477927Y-72744310D01*
X174477925Y-72744312D01*
X174477924Y-72744312D01*
X174344312Y-72877924D01*
X174344312Y-72877925D01*
X174344310Y-72877927D01*
X174344306Y-72877933D01*
X174233240Y-73030800D01*
X174147454Y-73199163D01*
X174089059Y-73378881D01*
X174059500Y-73565513D01*
X171530499Y-73565513D01*
X171530499Y-73210096D01*
X171550184Y-73143058D01*
X171566813Y-73122421D01*
X173321417Y-71367819D01*
X173382740Y-71334334D01*
X173409098Y-71331500D01*
X181206831Y-71331500D01*
X181206847Y-71331501D01*
X181214443Y-71331501D01*
X181372554Y-71331501D01*
X181372557Y-71331501D01*
X181525285Y-71290577D01*
X181525286Y-71290576D01*
X181533136Y-71288473D01*
X181533802Y-71290960D01*
X181590508Y-71284853D01*
X181652993Y-71316116D01*
X181688656Y-71376198D01*
X181686176Y-71446024D01*
X181656195Y-71494568D01*
X180700830Y-72449933D01*
X180639507Y-72483418D01*
X180593751Y-72484725D01*
X180434486Y-72459500D01*
X180434481Y-72459500D01*
X180245519Y-72459500D01*
X180245514Y-72459500D01*
X180058881Y-72489059D01*
X179879163Y-72547454D01*
X179710800Y-72633240D01*
X179623579Y-72696610D01*
X179557927Y-72744310D01*
X179557925Y-72744312D01*
X179557924Y-72744312D01*
X179424312Y-72877924D01*
X179424312Y-72877925D01*
X179424310Y-72877927D01*
X179424306Y-72877933D01*
X179313240Y-73030800D01*
X179227454Y-73199163D01*
X179169059Y-73378881D01*
X179139500Y-73565513D01*
X179139500Y-73754486D01*
X179169059Y-73941118D01*
X179227454Y-74120836D01*
X179313240Y-74289199D01*
X179424310Y-74442073D01*
X179557927Y-74575690D01*
X179710801Y-74686760D01*
X179790347Y-74727290D01*
X179879163Y-74772545D01*
X179879165Y-74772545D01*
X179879168Y-74772547D01*
X179975497Y-74803846D01*
X180058881Y-74830940D01*
X180245514Y-74860500D01*
X180245519Y-74860500D01*
X180434486Y-74860500D01*
X180621118Y-74830940D01*
X180800832Y-74772547D01*
X180969199Y-74686760D01*
X181122073Y-74575690D01*
X181255690Y-74442073D01*
X181366760Y-74289199D01*
X181452547Y-74120832D01*
X181492069Y-73999195D01*
X181531507Y-73941521D01*
X181595866Y-73914323D01*
X181664712Y-73926238D01*
X181716188Y-73973482D01*
X181727930Y-73999194D01*
X181729390Y-74003686D01*
X181767454Y-74120836D01*
X181853240Y-74289199D01*
X181964310Y-74442073D01*
X182097927Y-74575690D01*
X182250801Y-74686760D01*
X182330347Y-74727290D01*
X182419163Y-74772545D01*
X182419165Y-74772545D01*
X182419168Y-74772547D01*
X182515497Y-74803846D01*
X182598881Y-74830940D01*
X182785514Y-74860500D01*
X182785519Y-74860500D01*
X182974486Y-74860500D01*
X183161118Y-74830940D01*
X183340832Y-74772547D01*
X183509199Y-74686760D01*
X183662073Y-74575690D01*
X183795690Y-74442073D01*
X183906760Y-74289199D01*
X183992547Y-74120832D01*
X184050940Y-73941118D01*
X184066073Y-73845571D01*
X184080500Y-73754486D01*
X184080500Y-73565513D01*
X184050940Y-73378881D01*
X183992545Y-73199163D01*
X183921522Y-73059774D01*
X183906760Y-73030801D01*
X183795690Y-72877927D01*
X183662073Y-72744310D01*
X183604550Y-72702517D01*
X183531614Y-72649525D01*
X183528273Y-72645192D01*
X183523297Y-72642920D01*
X183507167Y-72617821D01*
X183488948Y-72594194D01*
X183487695Y-72587521D01*
X183485523Y-72584142D01*
X183480500Y-72549207D01*
X183480500Y-72471593D01*
X183489939Y-72424141D01*
X183534000Y-72317766D01*
X183534002Y-72317762D01*
X183564765Y-72163107D01*
X183564765Y-72005423D01*
X183564765Y-72005420D01*
X183564764Y-72005418D01*
X183534003Y-71850775D01*
X183534002Y-71850768D01*
X183523728Y-71825965D01*
X183516260Y-71756499D01*
X183547534Y-71694020D01*
X183607623Y-71658367D01*
X183677448Y-71660860D01*
X183725971Y-71690834D01*
X187060511Y-75025374D01*
X187060521Y-75025385D01*
X187064851Y-75029715D01*
X187064852Y-75029716D01*
X187176656Y-75141520D01*
X187176658Y-75141521D01*
X187176662Y-75141524D01*
X187313581Y-75220573D01*
X187313588Y-75220577D01*
X187425391Y-75250534D01*
X187466314Y-75261500D01*
X187466315Y-75261500D01*
X188287959Y-75261500D01*
X188287975Y-75261501D01*
X188295571Y-75261501D01*
X188453682Y-75261501D01*
X188453685Y-75261501D01*
X188606413Y-75220577D01*
X188656532Y-75191639D01*
X188743344Y-75141520D01*
X188855148Y-75029716D01*
X188855148Y-75029714D01*
X188865356Y-75019507D01*
X188865358Y-75019504D01*
X189479713Y-74405149D01*
X189479716Y-74405148D01*
X189591520Y-74293344D01*
X189641639Y-74206532D01*
X189670577Y-74156413D01*
X189711500Y-74003686D01*
X189711500Y-73845571D01*
X189711500Y-64740060D01*
X189711501Y-64740047D01*
X189711501Y-64571945D01*
X189711501Y-64571943D01*
X189670577Y-64419215D01*
X189641639Y-64369095D01*
X189591520Y-64282284D01*
X189479716Y-64170480D01*
X189479715Y-64170479D01*
X189475385Y-64166149D01*
X189475374Y-64166139D01*
X189346818Y-64037583D01*
X189313333Y-63976260D01*
X189310499Y-63949902D01*
X189310499Y-62602129D01*
X189310498Y-62602123D01*
X189310497Y-62602116D01*
X189304091Y-62542517D01*
X189253796Y-62407669D01*
X189253795Y-62407668D01*
X189253793Y-62407664D01*
X189167547Y-62292455D01*
X189167544Y-62292452D01*
X189052335Y-62206206D01*
X189052328Y-62206202D01*
X188917482Y-62155908D01*
X188917483Y-62155908D01*
X188857883Y-62149501D01*
X188857881Y-62149500D01*
X188857873Y-62149500D01*
X188857864Y-62149500D01*
X187062129Y-62149500D01*
X187062123Y-62149501D01*
X187002516Y-62155908D01*
X186867671Y-62206202D01*
X186867664Y-62206206D01*
X186752455Y-62292452D01*
X186752452Y-62292455D01*
X186666206Y-62407664D01*
X186666202Y-62407671D01*
X186615908Y-62542517D01*
X186609501Y-62602116D01*
X186609501Y-62602123D01*
X186609500Y-62602135D01*
X186609500Y-64397870D01*
X186609501Y-64397876D01*
X186615908Y-64457483D01*
X186666202Y-64592328D01*
X186666206Y-64592335D01*
X186752452Y-64707544D01*
X186752455Y-64707547D01*
X186867664Y-64793793D01*
X186867671Y-64793797D01*
X187002517Y-64844091D01*
X187002516Y-64844091D01*
X187009444Y-64844835D01*
X187062127Y-64850500D01*
X188386500Y-64850499D01*
X188453539Y-64870184D01*
X188499294Y-64922987D01*
X188510500Y-64974499D01*
X188510500Y-67105500D01*
X188490815Y-67172539D01*
X188438011Y-67218294D01*
X188386500Y-67229500D01*
X187062129Y-67229500D01*
X187062123Y-67229501D01*
X187002516Y-67235908D01*
X186867671Y-67286202D01*
X186867664Y-67286206D01*
X186752455Y-67372452D01*
X186752452Y-67372455D01*
X186666206Y-67487664D01*
X186666202Y-67487671D01*
X186615908Y-67622517D01*
X186614126Y-67630062D01*
X186611853Y-67629525D01*
X186589571Y-67683312D01*
X186532177Y-67723157D01*
X186493024Y-67729500D01*
X183147200Y-67729500D01*
X183141569Y-67728484D01*
X183138352Y-67729184D01*
X183103864Y-67721681D01*
X183073663Y-67710416D01*
X183017731Y-67668544D01*
X182993315Y-67603079D01*
X182992999Y-67594235D01*
X182992999Y-67182129D01*
X182992998Y-67182123D01*
X182986591Y-67122517D01*
X182975818Y-67093633D01*
X182968000Y-67050300D01*
X182968000Y-64312596D01*
X182987685Y-64245557D01*
X183004314Y-64224920D01*
X187422416Y-59806817D01*
X187483739Y-59773333D01*
X187510097Y-59770499D01*
X188857871Y-59770499D01*
X188857872Y-59770499D01*
X188917483Y-59764091D01*
X189052331Y-59713796D01*
X189167546Y-59627546D01*
X189253796Y-59512331D01*
X189304091Y-59377483D01*
X189310500Y-59317873D01*
X189310499Y-57522128D01*
X189304091Y-57462517D01*
X189253884Y-57327906D01*
X189253797Y-57327671D01*
X189253793Y-57327664D01*
X189167547Y-57212455D01*
X189167544Y-57212452D01*
X189052335Y-57126206D01*
X189052328Y-57126202D01*
X188917482Y-57075908D01*
X188917483Y-57075908D01*
X188857883Y-57069501D01*
X188857881Y-57069500D01*
X188857873Y-57069500D01*
X188857864Y-57069500D01*
X187062129Y-57069500D01*
X187062123Y-57069501D01*
X187002516Y-57075908D01*
X186867671Y-57126202D01*
X186867664Y-57126206D01*
X186752455Y-57212452D01*
X186752452Y-57212455D01*
X186666206Y-57327664D01*
X186666202Y-57327671D01*
X186615908Y-57462517D01*
X186609501Y-57522116D01*
X186609501Y-57522123D01*
X186609500Y-57522135D01*
X186609500Y-58869902D01*
X186589815Y-58936941D01*
X186573181Y-58957583D01*
X181886981Y-63643782D01*
X181886979Y-63643785D01*
X181836861Y-63730594D01*
X181836859Y-63730596D01*
X181807925Y-63780709D01*
X181807924Y-63780710D01*
X181807923Y-63780715D01*
X181766999Y-63933443D01*
X181766999Y-63933445D01*
X181766999Y-64101546D01*
X181767000Y-64101559D01*
X181767000Y-66610336D01*
X181766352Y-66612539D01*
X181766921Y-66614766D01*
X181756554Y-66645910D01*
X181747315Y-66677375D01*
X181745580Y-66678878D01*
X181744854Y-66681060D01*
X181719290Y-66701658D01*
X181694511Y-66723130D01*
X181691679Y-66723906D01*
X181690448Y-66724899D01*
X181656250Y-66733626D01*
X181630746Y-66736367D01*
X181604242Y-66736367D01*
X181599983Y-66735909D01*
X181540373Y-66729500D01*
X181540365Y-66729500D01*
X181194630Y-66729500D01*
X181194620Y-66729501D01*
X181130748Y-66736367D01*
X181104242Y-66736367D01*
X181099983Y-66735909D01*
X181040373Y-66729500D01*
X181040365Y-66729500D01*
X180694630Y-66729500D01*
X180694623Y-66729501D01*
X180635016Y-66735908D01*
X180500171Y-66786202D01*
X180500164Y-66786206D01*
X180384955Y-66872452D01*
X180351373Y-66917312D01*
X180295439Y-66959182D01*
X180252107Y-66967000D01*
X171271557Y-66967000D01*
X171113442Y-66967000D01*
X170960715Y-67007923D01*
X170960714Y-67007923D01*
X170960712Y-67007924D01*
X170960709Y-67007925D01*
X170910596Y-67036859D01*
X170910595Y-67036860D01*
X170887316Y-67050300D01*
X170823786Y-67086978D01*
X170717582Y-67193182D01*
X170656259Y-67226666D01*
X170629901Y-67229500D01*
X169282129Y-67229500D01*
X169282123Y-67229501D01*
X169222516Y-67235908D01*
X169087671Y-67286202D01*
X169087664Y-67286206D01*
X168972455Y-67372452D01*
X168972452Y-67372455D01*
X168886206Y-67487664D01*
X168886202Y-67487671D01*
X168835908Y-67622517D01*
X168829501Y-67682116D01*
X168829500Y-67682135D01*
X165600500Y-67682135D01*
X165600500Y-62602135D01*
X168829500Y-62602135D01*
X168829500Y-64397870D01*
X168829501Y-64397876D01*
X168835908Y-64457483D01*
X168886202Y-64592328D01*
X168886206Y-64592335D01*
X168972452Y-64707544D01*
X168972455Y-64707547D01*
X169087664Y-64793793D01*
X169087671Y-64793797D01*
X169222517Y-64844091D01*
X169222516Y-64844091D01*
X169229444Y-64844835D01*
X169282127Y-64850500D01*
X171077872Y-64850499D01*
X171137483Y-64844091D01*
X171272331Y-64793796D01*
X171387546Y-64707546D01*
X171473796Y-64592331D01*
X171524091Y-64457483D01*
X171530500Y-64397873D01*
X171530499Y-62602128D01*
X171524091Y-62542517D01*
X171473796Y-62407669D01*
X171473795Y-62407668D01*
X171473793Y-62407664D01*
X171387547Y-62292455D01*
X171387544Y-62292452D01*
X171272335Y-62206206D01*
X171272328Y-62206202D01*
X171137482Y-62155908D01*
X171137483Y-62155908D01*
X171077883Y-62149501D01*
X171077881Y-62149500D01*
X171077873Y-62149500D01*
X171077864Y-62149500D01*
X169282129Y-62149500D01*
X169282123Y-62149501D01*
X169222516Y-62155908D01*
X169087671Y-62206202D01*
X169087664Y-62206206D01*
X168972455Y-62292452D01*
X168972452Y-62292455D01*
X168886206Y-62407664D01*
X168886202Y-62407671D01*
X168835908Y-62542517D01*
X168829501Y-62602116D01*
X168829501Y-62602123D01*
X168829500Y-62602135D01*
X165600500Y-62602135D01*
X165600500Y-57522155D01*
X168830000Y-57522155D01*
X168830000Y-58170000D01*
X169746988Y-58170000D01*
X169714075Y-58227007D01*
X169680000Y-58354174D01*
X169680000Y-58485826D01*
X169714075Y-58612993D01*
X169746988Y-58670000D01*
X168830000Y-58670000D01*
X168830000Y-59317844D01*
X168836401Y-59377372D01*
X168836403Y-59377379D01*
X168886645Y-59512086D01*
X168886649Y-59512093D01*
X168972809Y-59627187D01*
X168972812Y-59627190D01*
X169087906Y-59713350D01*
X169087913Y-59713354D01*
X169222620Y-59763596D01*
X169222627Y-59763598D01*
X169282155Y-59769999D01*
X169282172Y-59770000D01*
X169930000Y-59770000D01*
X169930000Y-58853012D01*
X169987007Y-58885925D01*
X170114174Y-58920000D01*
X170245826Y-58920000D01*
X170372993Y-58885925D01*
X170430000Y-58853012D01*
X170430000Y-59770000D01*
X171077828Y-59770000D01*
X171077844Y-59769999D01*
X171137372Y-59763598D01*
X171137379Y-59763596D01*
X171272086Y-59713354D01*
X171272093Y-59713350D01*
X171387187Y-59627190D01*
X171387190Y-59627187D01*
X171473350Y-59512093D01*
X171473354Y-59512086D01*
X171523596Y-59377379D01*
X171523598Y-59377372D01*
X171529999Y-59317844D01*
X171530000Y-59317827D01*
X171530000Y-58670000D01*
X170613012Y-58670000D01*
X170645925Y-58612993D01*
X170680000Y-58485826D01*
X170680000Y-58354174D01*
X170645925Y-58227007D01*
X170613012Y-58170000D01*
X171530000Y-58170000D01*
X171530000Y-57522172D01*
X171529999Y-57522155D01*
X171523598Y-57462627D01*
X171523596Y-57462620D01*
X171473354Y-57327913D01*
X171473350Y-57327906D01*
X171387190Y-57212812D01*
X171387187Y-57212809D01*
X171272093Y-57126649D01*
X171272086Y-57126645D01*
X171137379Y-57076403D01*
X171137372Y-57076401D01*
X171077844Y-57070000D01*
X170430000Y-57070000D01*
X170430000Y-57986988D01*
X170372993Y-57954075D01*
X170245826Y-57920000D01*
X170114174Y-57920000D01*
X169987007Y-57954075D01*
X169930000Y-57986988D01*
X169930000Y-57070000D01*
X169282155Y-57070000D01*
X169222627Y-57076401D01*
X169222620Y-57076403D01*
X169087913Y-57126645D01*
X169087906Y-57126649D01*
X168972812Y-57212809D01*
X168972809Y-57212812D01*
X168886649Y-57327906D01*
X168886645Y-57327913D01*
X168836403Y-57462620D01*
X168836401Y-57462627D01*
X168830000Y-57522155D01*
X165600500Y-57522155D01*
X165600500Y-56343750D01*
X165600726Y-56336263D01*
X165618271Y-56046205D01*
X165620076Y-56031340D01*
X165671780Y-55749201D01*
X165675364Y-55734663D01*
X165752096Y-55488422D01*
X165760696Y-55460822D01*
X165765998Y-55446841D01*
X165883731Y-55185249D01*
X165890676Y-55172016D01*
X166039080Y-54926526D01*
X166047567Y-54914230D01*
X166224480Y-54688417D01*
X166234395Y-54677226D01*
X166437226Y-54474395D01*
X166448417Y-54464480D01*
X166674230Y-54287567D01*
X166686526Y-54279080D01*
X166932016Y-54130676D01*
X166945249Y-54123731D01*
X167206841Y-54005998D01*
X167220822Y-54000696D01*
X167494668Y-53915362D01*
X167509197Y-53911780D01*
X167791344Y-53860075D01*
X167806201Y-53858271D01*
X168096264Y-53840726D01*
X168103751Y-53840500D01*
X168165892Y-53840500D01*
X189974108Y-53840500D01*
X190036249Y-53840500D01*
X190043736Y-53840726D01*
G37*
%TD.AperFunction*%
%TD*%
M02*
