%TF.GenerationSoftware,KiCad,Pcbnew,9.0.6*%
%TF.CreationDate,2025-12-13T19:58:55+05:30*%
%TF.ProjectId,Assignment1,41737369-676e-46d6-956e-74312e6b6963,rev?*%
%TF.SameCoordinates,Original*%
%TF.FileFunction,Copper,L2,Bot*%
%TF.FilePolarity,Positive*%
%FSLAX46Y46*%
G04 Gerber Fmt 4.6, Leading zero omitted, Abs format (unit mm)*
G04 Created by KiCad (PCBNEW 9.0.6) date 2025-12-13 19:58:55*
%MOMM*%
%LPD*%
G01*
G04 APERTURE LIST*
%TA.AperFunction,ComponentPad*%
%ADD10C,1.400000*%
%TD*%
%TA.AperFunction,ComponentPad*%
%ADD11R,1.700000X1.700000*%
%TD*%
%TA.AperFunction,ComponentPad*%
%ADD12C,1.600000*%
%TD*%
%TA.AperFunction,ViaPad*%
%ADD13C,0.600000*%
%TD*%
%TA.AperFunction,Conductor*%
%ADD14C,0.200000*%
%TD*%
G04 APERTURE END LIST*
D10*
%TO.P,R2,2*%
%TO.N,Net-(SCx1-Pin_1)*%
X180340000Y-73660000D03*
%TO.P,R2,1*%
%TO.N,VCC*%
X175260000Y-73660000D03*
%TD*%
D11*
%TO.P,GND,1,Pin_1*%
%TO.N,GND*%
X170180000Y-58420000D03*
%TD*%
%TO.P,SDA,1,Pin_1*%
%TO.N,Net-(SDx1-Pin_1)*%
X187960000Y-68580000D03*
%TD*%
%TO.P,SCL,1,Pin_1*%
%TO.N,Net-(SCx1-Pin_1)*%
X187960000Y-63500000D03*
%TD*%
D10*
%TO.P,R1,1*%
%TO.N,VCC*%
X182880000Y-73660000D03*
%TO.P,R1,2*%
%TO.N,Net-(SDx1-Pin_1)*%
X187960000Y-73660000D03*
%TD*%
D12*
%TO.P,C1,1*%
%TO.N,VCC*%
X175300000Y-83820000D03*
%TO.P,C1,2*%
%TO.N,GND*%
X177800000Y-83820000D03*
%TD*%
D11*
%TO.P,VCC,1,Pin_1*%
%TO.N,VCC*%
X170180000Y-63500000D03*
%TD*%
%TO.P,SDO,1,Pin_1*%
%TO.N,Net-(SDO1-Pin_1)*%
X187960000Y-58420000D03*
%TD*%
D12*
%TO.P,C2,1*%
%TO.N,GND*%
X185460000Y-83820000D03*
%TO.P,C2,2*%
%TO.N,VCC*%
X187960000Y-83820000D03*
%TD*%
D11*
%TO.P,INT2,1,Pin_1*%
%TO.N,Net-(INT2-Pin_1)*%
X170180000Y-73660000D03*
%TD*%
%TO.P,INT1,1,Pin_1*%
%TO.N,Net-(INT1-Pin_1)*%
X170180000Y-68580000D03*
%TD*%
D13*
%TO.N,GND*%
X181560000Y-68540000D03*
X177420000Y-66440000D03*
%TO.N,VCC*%
X178850000Y-70131000D03*
X182764265Y-72084265D03*
%TD*%
D14*
%TO.N,GND*%
X179520000Y-68540000D02*
X181560000Y-68540000D01*
X177420000Y-66440000D02*
X179520000Y-68540000D01*
%TO.N,VCC*%
X180803265Y-72084265D02*
X178850000Y-70131000D01*
X182764265Y-72084265D02*
X180803265Y-72084265D01*
%TD*%
%TA.AperFunction,Conductor*%
%TO.N,VCC*%
G36*
X190043736Y-53840726D02*
G01*
X190333796Y-53858271D01*
X190348659Y-53860076D01*
X190630798Y-53911780D01*
X190645335Y-53915363D01*
X190919172Y-54000695D01*
X190933163Y-54006000D01*
X191194743Y-54123727D01*
X191207989Y-54130680D01*
X191453465Y-54279075D01*
X191465776Y-54287573D01*
X191691573Y-54464473D01*
X191702781Y-54474403D01*
X191905596Y-54677218D01*
X191915526Y-54688426D01*
X192035481Y-54841538D01*
X192092422Y-54914217D01*
X192100928Y-54926540D01*
X192249316Y-55172004D01*
X192256275Y-55185263D01*
X192373997Y-55446831D01*
X192379306Y-55460832D01*
X192464635Y-55734663D01*
X192468219Y-55749201D01*
X192519923Y-56031340D01*
X192521728Y-56046205D01*
X192539274Y-56336263D01*
X192539500Y-56343750D01*
X192539500Y-88436249D01*
X192539274Y-88443736D01*
X192521728Y-88733794D01*
X192519923Y-88748659D01*
X192468219Y-89030798D01*
X192464635Y-89045336D01*
X192379306Y-89319167D01*
X192373997Y-89333168D01*
X192256275Y-89594736D01*
X192249316Y-89607995D01*
X192100928Y-89853459D01*
X192092422Y-89865782D01*
X191915526Y-90091573D01*
X191905596Y-90102781D01*
X191702781Y-90305596D01*
X191691573Y-90315526D01*
X191465782Y-90492422D01*
X191453459Y-90500928D01*
X191207995Y-90649316D01*
X191194736Y-90656275D01*
X190933168Y-90773997D01*
X190919167Y-90779306D01*
X190645336Y-90864635D01*
X190630798Y-90868219D01*
X190348659Y-90919923D01*
X190333794Y-90921728D01*
X190043736Y-90939274D01*
X190036249Y-90939500D01*
X168103751Y-90939500D01*
X168096264Y-90939274D01*
X167806205Y-90921728D01*
X167791340Y-90919923D01*
X167509201Y-90868219D01*
X167494663Y-90864635D01*
X167220832Y-90779306D01*
X167206831Y-90773997D01*
X166945263Y-90656275D01*
X166932004Y-90649316D01*
X166686540Y-90500928D01*
X166674217Y-90492422D01*
X166448426Y-90315526D01*
X166437218Y-90305596D01*
X166234403Y-90102781D01*
X166224473Y-90091573D01*
X166047573Y-89865776D01*
X166039075Y-89853465D01*
X165890680Y-89607989D01*
X165883727Y-89594743D01*
X165766000Y-89333163D01*
X165760693Y-89319167D01*
X165675364Y-89045336D01*
X165671780Y-89030798D01*
X165620076Y-88748659D01*
X165618271Y-88733794D01*
X165600726Y-88443736D01*
X165600500Y-88436249D01*
X165600500Y-83717682D01*
X174000000Y-83717682D01*
X174000000Y-83922317D01*
X174032009Y-84124417D01*
X174095244Y-84319031D01*
X174188141Y-84501350D01*
X174188147Y-84501359D01*
X174220523Y-84545921D01*
X174220524Y-84545922D01*
X174900000Y-83866446D01*
X174900000Y-83872661D01*
X174927259Y-83974394D01*
X174979920Y-84065606D01*
X175054394Y-84140080D01*
X175145606Y-84192741D01*
X175247339Y-84220000D01*
X175253553Y-84220000D01*
X174574076Y-84899474D01*
X174618650Y-84931859D01*
X174800968Y-85024755D01*
X174995582Y-85087990D01*
X175197683Y-85120000D01*
X175402317Y-85120000D01*
X175604417Y-85087990D01*
X175799031Y-85024755D01*
X175981349Y-84931859D01*
X176025921Y-84899474D01*
X175346447Y-84220000D01*
X175352661Y-84220000D01*
X175454394Y-84192741D01*
X175545606Y-84140080D01*
X175620080Y-84065606D01*
X175672741Y-83974394D01*
X175700000Y-83872661D01*
X175700000Y-83866447D01*
X176379474Y-84545921D01*
X176411859Y-84501349D01*
X176439233Y-84447624D01*
X176487207Y-84396827D01*
X176555028Y-84380031D01*
X176621163Y-84402567D01*
X176660203Y-84447621D01*
X176687713Y-84501611D01*
X176808028Y-84667213D01*
X176952786Y-84811971D01*
X177073226Y-84899474D01*
X177118390Y-84932287D01*
X177234607Y-84991503D01*
X177300776Y-85025218D01*
X177300778Y-85025218D01*
X177300781Y-85025220D01*
X177405137Y-85059127D01*
X177495465Y-85088477D01*
X177596557Y-85104488D01*
X177697648Y-85120500D01*
X177697649Y-85120500D01*
X177902351Y-85120500D01*
X177902352Y-85120500D01*
X178104534Y-85088477D01*
X178299219Y-85025220D01*
X178481610Y-84932287D01*
X178574590Y-84864732D01*
X178647213Y-84811971D01*
X178647215Y-84811968D01*
X178647219Y-84811966D01*
X178791966Y-84667219D01*
X178791968Y-84667215D01*
X178791971Y-84667213D01*
X178844732Y-84594590D01*
X178912287Y-84501610D01*
X179005220Y-84319219D01*
X179068477Y-84124534D01*
X179100500Y-83922352D01*
X179100500Y-83717648D01*
X184159500Y-83717648D01*
X184159500Y-83922351D01*
X184191522Y-84124534D01*
X184254781Y-84319223D01*
X184294323Y-84396827D01*
X184347585Y-84501359D01*
X184347715Y-84501613D01*
X184468028Y-84667213D01*
X184612786Y-84811971D01*
X184733226Y-84899474D01*
X184778390Y-84932287D01*
X184894607Y-84991503D01*
X184960776Y-85025218D01*
X184960778Y-85025218D01*
X184960781Y-85025220D01*
X185065137Y-85059127D01*
X185155465Y-85088477D01*
X185256557Y-85104488D01*
X185357648Y-85120500D01*
X185357649Y-85120500D01*
X185562351Y-85120500D01*
X185562352Y-85120500D01*
X185764534Y-85088477D01*
X185959219Y-85025220D01*
X186141610Y-84932287D01*
X186234590Y-84864732D01*
X186307213Y-84811971D01*
X186307215Y-84811968D01*
X186307219Y-84811966D01*
X186451966Y-84667219D01*
X186451968Y-84667215D01*
X186451971Y-84667213D01*
X186572286Y-84501611D01*
X186572415Y-84501359D01*
X186599795Y-84447621D01*
X186647769Y-84396826D01*
X186715589Y-84380030D01*
X186781725Y-84402567D01*
X186820765Y-84447621D01*
X186848141Y-84501350D01*
X186848147Y-84501359D01*
X186880523Y-84545921D01*
X186880524Y-84545922D01*
X187560000Y-83866446D01*
X187560000Y-83872661D01*
X187587259Y-83974394D01*
X187639920Y-84065606D01*
X187714394Y-84140080D01*
X187805606Y-84192741D01*
X187907339Y-84220000D01*
X187913553Y-84220000D01*
X187234076Y-84899474D01*
X187278650Y-84931859D01*
X187460968Y-85024755D01*
X187655582Y-85087990D01*
X187857683Y-85120000D01*
X188062317Y-85120000D01*
X188264417Y-85087990D01*
X188459031Y-85024755D01*
X188641349Y-84931859D01*
X188685921Y-84899474D01*
X188006447Y-84220000D01*
X188012661Y-84220000D01*
X188114394Y-84192741D01*
X188205606Y-84140080D01*
X188280080Y-84065606D01*
X188332741Y-83974394D01*
X188360000Y-83872661D01*
X188360000Y-83866448D01*
X189039474Y-84545922D01*
X189039474Y-84545921D01*
X189071859Y-84501349D01*
X189164755Y-84319031D01*
X189227990Y-84124417D01*
X189260000Y-83922317D01*
X189260000Y-83717682D01*
X189227990Y-83515582D01*
X189164755Y-83320968D01*
X189071859Y-83138650D01*
X189039474Y-83094077D01*
X189039474Y-83094076D01*
X188360000Y-83773551D01*
X188360000Y-83767339D01*
X188332741Y-83665606D01*
X188280080Y-83574394D01*
X188205606Y-83499920D01*
X188114394Y-83447259D01*
X188012661Y-83420000D01*
X188006446Y-83420000D01*
X188685922Y-82740524D01*
X188685921Y-82740523D01*
X188641359Y-82708147D01*
X188641350Y-82708141D01*
X188459031Y-82615244D01*
X188264417Y-82552009D01*
X188062317Y-82520000D01*
X187857683Y-82520000D01*
X187655582Y-82552009D01*
X187460968Y-82615244D01*
X187278644Y-82708143D01*
X187234077Y-82740523D01*
X187234077Y-82740524D01*
X187913554Y-83420000D01*
X187907339Y-83420000D01*
X187805606Y-83447259D01*
X187714394Y-83499920D01*
X187639920Y-83574394D01*
X187587259Y-83665606D01*
X187560000Y-83767339D01*
X187560000Y-83773553D01*
X186880524Y-83094077D01*
X186880523Y-83094077D01*
X186848143Y-83138644D01*
X186820765Y-83192378D01*
X186772790Y-83243174D01*
X186704969Y-83259969D01*
X186638834Y-83237431D01*
X186599795Y-83192378D01*
X186572284Y-83138385D01*
X186451971Y-82972786D01*
X186307213Y-82828028D01*
X186141613Y-82707715D01*
X186141612Y-82707714D01*
X186141610Y-82707713D01*
X186084653Y-82678691D01*
X185959223Y-82614781D01*
X185764534Y-82551522D01*
X185589995Y-82523878D01*
X185562352Y-82519500D01*
X185357648Y-82519500D01*
X185333329Y-82523351D01*
X185155465Y-82551522D01*
X184960776Y-82614781D01*
X184778386Y-82707715D01*
X184612786Y-82828028D01*
X184468028Y-82972786D01*
X184347715Y-83138386D01*
X184254781Y-83320776D01*
X184191522Y-83515465D01*
X184159500Y-83717648D01*
X179100500Y-83717648D01*
X179092257Y-83665606D01*
X179068477Y-83515465D01*
X179037458Y-83420000D01*
X179005220Y-83320781D01*
X179005218Y-83320778D01*
X179005218Y-83320776D01*
X178962750Y-83237429D01*
X178912287Y-83138390D01*
X178880092Y-83094077D01*
X178791971Y-82972786D01*
X178647213Y-82828028D01*
X178481613Y-82707715D01*
X178481612Y-82707714D01*
X178481610Y-82707713D01*
X178424653Y-82678691D01*
X178299223Y-82614781D01*
X178104534Y-82551522D01*
X177929995Y-82523878D01*
X177902352Y-82519500D01*
X177697648Y-82519500D01*
X177673329Y-82523351D01*
X177495465Y-82551522D01*
X177300776Y-82614781D01*
X177118386Y-82707715D01*
X176952786Y-82828028D01*
X176808028Y-82972786D01*
X176687714Y-83138386D01*
X176660203Y-83192379D01*
X176612227Y-83243174D01*
X176544406Y-83259968D01*
X176478272Y-83237429D01*
X176439234Y-83192376D01*
X176411861Y-83138652D01*
X176379474Y-83094077D01*
X176379474Y-83094076D01*
X175700000Y-83773551D01*
X175700000Y-83767339D01*
X175672741Y-83665606D01*
X175620080Y-83574394D01*
X175545606Y-83499920D01*
X175454394Y-83447259D01*
X175352661Y-83420000D01*
X175346446Y-83420000D01*
X176025922Y-82740524D01*
X176025921Y-82740523D01*
X175981359Y-82708147D01*
X175981350Y-82708141D01*
X175799031Y-82615244D01*
X175604417Y-82552009D01*
X175402317Y-82520000D01*
X175197683Y-82520000D01*
X174995582Y-82552009D01*
X174800968Y-82615244D01*
X174618644Y-82708143D01*
X174574077Y-82740523D01*
X174574077Y-82740524D01*
X175253554Y-83420000D01*
X175247339Y-83420000D01*
X175145606Y-83447259D01*
X175054394Y-83499920D01*
X174979920Y-83574394D01*
X174927259Y-83665606D01*
X174900000Y-83767339D01*
X174900000Y-83773553D01*
X174220524Y-83094077D01*
X174220523Y-83094077D01*
X174188143Y-83138644D01*
X174095244Y-83320968D01*
X174032009Y-83515582D01*
X174000000Y-83717682D01*
X165600500Y-83717682D01*
X165600500Y-72762135D01*
X168829500Y-72762135D01*
X168829500Y-74557870D01*
X168829501Y-74557876D01*
X168835908Y-74617483D01*
X168886202Y-74752328D01*
X168886206Y-74752335D01*
X168972452Y-74867544D01*
X168972455Y-74867547D01*
X169087664Y-74953793D01*
X169087671Y-74953797D01*
X169222517Y-75004091D01*
X169222516Y-75004091D01*
X169229444Y-75004835D01*
X169282127Y-75010500D01*
X171077872Y-75010499D01*
X171137483Y-75004091D01*
X171272331Y-74953796D01*
X171387546Y-74867546D01*
X171473796Y-74752331D01*
X171505293Y-74667882D01*
X174605669Y-74667882D01*
X174605670Y-74667883D01*
X174631059Y-74686329D01*
X174799362Y-74772085D01*
X174978997Y-74830451D01*
X175165553Y-74860000D01*
X175354447Y-74860000D01*
X175541002Y-74830451D01*
X175720637Y-74772085D01*
X175888937Y-74686331D01*
X175914328Y-74667883D01*
X175914328Y-74667882D01*
X175260001Y-74013554D01*
X175260000Y-74013554D01*
X174605669Y-74667882D01*
X171505293Y-74667882D01*
X171524091Y-74617483D01*
X171530500Y-74557873D01*
X171530499Y-73565552D01*
X174060000Y-73565552D01*
X174060000Y-73754447D01*
X174089548Y-73941002D01*
X174147914Y-74120637D01*
X174233666Y-74288933D01*
X174252116Y-74314328D01*
X174906446Y-73660000D01*
X174906446Y-73659999D01*
X174860369Y-73613922D01*
X174910000Y-73613922D01*
X174910000Y-73706078D01*
X174933852Y-73795095D01*
X174979930Y-73874905D01*
X175045095Y-73940070D01*
X175124905Y-73986148D01*
X175213922Y-74010000D01*
X175306078Y-74010000D01*
X175395095Y-73986148D01*
X175474905Y-73940070D01*
X175540070Y-73874905D01*
X175586148Y-73795095D01*
X175610000Y-73706078D01*
X175610000Y-73659999D01*
X175613554Y-73659999D01*
X175613554Y-73660000D01*
X176267882Y-74314328D01*
X176267883Y-74314328D01*
X176286331Y-74288937D01*
X176372085Y-74120637D01*
X176430451Y-73941002D01*
X176460000Y-73754447D01*
X176460000Y-73565552D01*
X176459994Y-73565513D01*
X179139500Y-73565513D01*
X179139500Y-73754486D01*
X179169059Y-73941118D01*
X179227454Y-74120836D01*
X179313104Y-74288933D01*
X179313240Y-74289199D01*
X179424310Y-74442073D01*
X179557927Y-74575690D01*
X179710801Y-74686760D01*
X179790347Y-74727290D01*
X179879163Y-74772545D01*
X179879165Y-74772545D01*
X179879168Y-74772547D01*
X179975497Y-74803846D01*
X180058881Y-74830940D01*
X180245514Y-74860500D01*
X180245519Y-74860500D01*
X180434486Y-74860500D01*
X180621118Y-74830940D01*
X180622623Y-74830451D01*
X180800832Y-74772547D01*
X180969199Y-74686760D01*
X180995182Y-74667882D01*
X182225669Y-74667882D01*
X182225670Y-74667883D01*
X182251059Y-74686329D01*
X182419362Y-74772085D01*
X182598997Y-74830451D01*
X182785553Y-74860000D01*
X182974447Y-74860000D01*
X183161002Y-74830451D01*
X183340637Y-74772085D01*
X183508937Y-74686331D01*
X183534328Y-74667883D01*
X183534328Y-74667882D01*
X182880001Y-74013554D01*
X182880000Y-74013554D01*
X182225669Y-74667882D01*
X180995182Y-74667882D01*
X181122073Y-74575690D01*
X181255690Y-74442073D01*
X181366760Y-74289199D01*
X181452547Y-74120832D01*
X181492332Y-73998385D01*
X181531768Y-73940713D01*
X181596127Y-73913514D01*
X181664973Y-73925429D01*
X181716449Y-73972673D01*
X181728193Y-73998388D01*
X181767914Y-74120637D01*
X181853666Y-74288933D01*
X181872116Y-74314328D01*
X182526446Y-73660000D01*
X182526446Y-73659999D01*
X182480369Y-73613922D01*
X182530000Y-73613922D01*
X182530000Y-73706078D01*
X182553852Y-73795095D01*
X182599930Y-73874905D01*
X182665095Y-73940070D01*
X182744905Y-73986148D01*
X182833922Y-74010000D01*
X182926078Y-74010000D01*
X183015095Y-73986148D01*
X183094905Y-73940070D01*
X183160070Y-73874905D01*
X183206148Y-73795095D01*
X183230000Y-73706078D01*
X183230000Y-73659999D01*
X183233554Y-73659999D01*
X183233554Y-73660000D01*
X183887882Y-74314328D01*
X183887883Y-74314328D01*
X183906331Y-74288937D01*
X183992085Y-74120637D01*
X184050451Y-73941002D01*
X184080000Y-73754447D01*
X184080000Y-73565552D01*
X184079994Y-73565513D01*
X186759500Y-73565513D01*
X186759500Y-73754486D01*
X186789059Y-73941118D01*
X186847454Y-74120836D01*
X186933104Y-74288933D01*
X186933240Y-74289199D01*
X187044310Y-74442073D01*
X187177927Y-74575690D01*
X187330801Y-74686760D01*
X187410347Y-74727290D01*
X187499163Y-74772545D01*
X187499165Y-74772545D01*
X187499168Y-74772547D01*
X187595497Y-74803846D01*
X187678881Y-74830940D01*
X187865514Y-74860500D01*
X187865519Y-74860500D01*
X188054486Y-74860500D01*
X188241118Y-74830940D01*
X188242623Y-74830451D01*
X188420832Y-74772547D01*
X188589199Y-74686760D01*
X188742073Y-74575690D01*
X188875690Y-74442073D01*
X188986760Y-74289199D01*
X189072547Y-74120832D01*
X189130940Y-73941118D01*
X189141427Y-73874905D01*
X189160500Y-73754486D01*
X189160500Y-73565513D01*
X189130940Y-73378881D01*
X189072610Y-73199362D01*
X189072547Y-73199168D01*
X189072545Y-73199165D01*
X189072545Y-73199163D01*
X189027290Y-73110347D01*
X188986760Y-73030801D01*
X188875690Y-72877927D01*
X188742073Y-72744310D01*
X188589199Y-72633240D01*
X188420836Y-72547454D01*
X188241118Y-72489059D01*
X188054486Y-72459500D01*
X188054481Y-72459500D01*
X187865519Y-72459500D01*
X187865514Y-72459500D01*
X187678881Y-72489059D01*
X187499163Y-72547454D01*
X187330800Y-72633240D01*
X187243579Y-72696610D01*
X187177927Y-72744310D01*
X187177925Y-72744312D01*
X187177924Y-72744312D01*
X187044312Y-72877924D01*
X187044312Y-72877925D01*
X187044310Y-72877927D01*
X186996610Y-72943579D01*
X186933240Y-73030800D01*
X186847454Y-73199163D01*
X186789059Y-73378881D01*
X186759500Y-73565513D01*
X184079994Y-73565513D01*
X184050451Y-73378997D01*
X183992085Y-73199362D01*
X183906329Y-73031059D01*
X183887883Y-73005670D01*
X183887882Y-73005669D01*
X183233554Y-73659999D01*
X183230000Y-73659999D01*
X183230000Y-73613922D01*
X183206148Y-73524905D01*
X183160070Y-73445095D01*
X183094905Y-73379930D01*
X183015095Y-73333852D01*
X182926078Y-73310000D01*
X182833922Y-73310000D01*
X182744905Y-73333852D01*
X182665095Y-73379930D01*
X182599930Y-73445095D01*
X182553852Y-73524905D01*
X182530000Y-73613922D01*
X182480369Y-73613922D01*
X181872116Y-73005669D01*
X181872116Y-73005670D01*
X181853669Y-73031060D01*
X181767915Y-73199361D01*
X181728193Y-73321612D01*
X181688755Y-73379287D01*
X181624396Y-73406485D01*
X181555550Y-73394570D01*
X181504074Y-73347326D01*
X181492332Y-73321614D01*
X181452547Y-73199168D01*
X181366760Y-73030801D01*
X181255690Y-72877927D01*
X181122073Y-72744310D01*
X180995179Y-72652116D01*
X182225669Y-72652116D01*
X182880000Y-73306446D01*
X182880001Y-73306446D01*
X183534328Y-72652116D01*
X183508933Y-72633666D01*
X183340637Y-72547914D01*
X183161002Y-72489548D01*
X182974447Y-72460000D01*
X182785553Y-72460000D01*
X182598997Y-72489548D01*
X182419362Y-72547914D01*
X182251060Y-72633669D01*
X182225670Y-72652116D01*
X182225669Y-72652116D01*
X180995179Y-72652116D01*
X180969199Y-72633240D01*
X180800836Y-72547454D01*
X180621118Y-72489059D01*
X180434486Y-72459500D01*
X180434481Y-72459500D01*
X180245519Y-72459500D01*
X180245514Y-72459500D01*
X180058881Y-72489059D01*
X179879163Y-72547454D01*
X179710800Y-72633240D01*
X179623579Y-72696610D01*
X179557927Y-72744310D01*
X179557925Y-72744312D01*
X179557924Y-72744312D01*
X179424312Y-72877924D01*
X179424312Y-72877925D01*
X179424310Y-72877927D01*
X179376610Y-72943579D01*
X179313240Y-73030800D01*
X179227454Y-73199163D01*
X179169059Y-73378881D01*
X179139500Y-73565513D01*
X176459994Y-73565513D01*
X176430451Y-73378997D01*
X176372085Y-73199362D01*
X176286329Y-73031059D01*
X176267883Y-73005670D01*
X176267882Y-73005669D01*
X175613554Y-73659999D01*
X175610000Y-73659999D01*
X175610000Y-73613922D01*
X175586148Y-73524905D01*
X175540070Y-73445095D01*
X175474905Y-73379930D01*
X175395095Y-73333852D01*
X175306078Y-73310000D01*
X175213922Y-73310000D01*
X175124905Y-73333852D01*
X175045095Y-73379930D01*
X174979930Y-73445095D01*
X174933852Y-73524905D01*
X174910000Y-73613922D01*
X174860369Y-73613922D01*
X174252116Y-73005669D01*
X174252116Y-73005670D01*
X174233669Y-73031060D01*
X174147914Y-73199362D01*
X174089548Y-73378997D01*
X174060000Y-73565552D01*
X171530499Y-73565552D01*
X171530499Y-72762128D01*
X171524091Y-72702517D01*
X171505292Y-72652116D01*
X174605669Y-72652116D01*
X175260000Y-73306446D01*
X175260001Y-73306446D01*
X175914328Y-72652116D01*
X175888933Y-72633666D01*
X175720637Y-72547914D01*
X175541002Y-72489548D01*
X175354447Y-72460000D01*
X175165553Y-72460000D01*
X174978997Y-72489548D01*
X174799362Y-72547914D01*
X174631060Y-72633669D01*
X174605670Y-72652116D01*
X174605669Y-72652116D01*
X171505292Y-72652116D01*
X171498412Y-72633669D01*
X171473797Y-72567671D01*
X171473793Y-72567664D01*
X171387547Y-72452455D01*
X171387544Y-72452452D01*
X171272335Y-72366206D01*
X171272328Y-72366202D01*
X171137482Y-72315908D01*
X171137483Y-72315908D01*
X171077883Y-72309501D01*
X171077881Y-72309500D01*
X171077873Y-72309500D01*
X171077864Y-72309500D01*
X169282129Y-72309500D01*
X169282123Y-72309501D01*
X169222516Y-72315908D01*
X169087671Y-72366202D01*
X169087664Y-72366206D01*
X168972455Y-72452452D01*
X168972452Y-72452455D01*
X168886206Y-72567664D01*
X168886202Y-72567671D01*
X168835908Y-72702517D01*
X168831415Y-72744312D01*
X168829501Y-72762123D01*
X168829500Y-72762135D01*
X165600500Y-72762135D01*
X165600500Y-67682135D01*
X168829500Y-67682135D01*
X168829500Y-69477870D01*
X168829501Y-69477876D01*
X168835908Y-69537483D01*
X168886202Y-69672328D01*
X168886206Y-69672335D01*
X168972452Y-69787544D01*
X168972455Y-69787547D01*
X169087664Y-69873793D01*
X169087671Y-69873797D01*
X169222517Y-69924091D01*
X169222516Y-69924091D01*
X169229444Y-69924835D01*
X169282127Y-69930500D01*
X171077872Y-69930499D01*
X171137483Y-69924091D01*
X171272331Y-69873796D01*
X171387546Y-69787546D01*
X171473796Y-69672331D01*
X171524091Y-69537483D01*
X171530500Y-69477873D01*
X171530499Y-67682128D01*
X171524091Y-67622517D01*
X171473796Y-67487669D01*
X171473795Y-67487668D01*
X171473793Y-67487664D01*
X171387547Y-67372455D01*
X171387544Y-67372452D01*
X171272335Y-67286206D01*
X171272328Y-67286202D01*
X171137482Y-67235908D01*
X171137483Y-67235908D01*
X171077883Y-67229501D01*
X171077881Y-67229500D01*
X171077873Y-67229500D01*
X171077864Y-67229500D01*
X169282129Y-67229500D01*
X169282123Y-67229501D01*
X169222516Y-67235908D01*
X169087671Y-67286202D01*
X169087664Y-67286206D01*
X168972455Y-67372452D01*
X168972452Y-67372455D01*
X168886206Y-67487664D01*
X168886202Y-67487671D01*
X168835908Y-67622517D01*
X168829501Y-67682116D01*
X168829501Y-67682123D01*
X168829500Y-67682135D01*
X165600500Y-67682135D01*
X165600500Y-66361153D01*
X176619500Y-66361153D01*
X176619500Y-66518846D01*
X176650261Y-66673489D01*
X176650264Y-66673501D01*
X176710602Y-66819172D01*
X176710609Y-66819185D01*
X176798210Y-66950288D01*
X176798213Y-66950292D01*
X176909707Y-67061786D01*
X176909711Y-67061789D01*
X177040814Y-67149390D01*
X177040827Y-67149397D01*
X177186498Y-67209735D01*
X177186503Y-67209737D01*
X177251147Y-67222595D01*
X177341849Y-67240638D01*
X177403760Y-67273023D01*
X177405339Y-67274574D01*
X179035139Y-68904374D01*
X179035149Y-68904385D01*
X179039479Y-68908715D01*
X179039480Y-68908716D01*
X179151284Y-69020520D01*
X179151286Y-69020521D01*
X179151290Y-69020524D01*
X179288209Y-69099573D01*
X179288216Y-69099577D01*
X179400019Y-69129534D01*
X179440942Y-69140500D01*
X179440943Y-69140500D01*
X180980234Y-69140500D01*
X181047273Y-69160185D01*
X181049125Y-69161398D01*
X181180814Y-69249390D01*
X181180827Y-69249397D01*
X181326498Y-69309735D01*
X181326503Y-69309737D01*
X181481153Y-69340499D01*
X181481156Y-69340500D01*
X181481158Y-69340500D01*
X181638844Y-69340500D01*
X181638845Y-69340499D01*
X181793497Y-69309737D01*
X181939179Y-69249394D01*
X182070289Y-69161789D01*
X182181789Y-69050289D01*
X182269394Y-68919179D01*
X182329737Y-68773497D01*
X182360500Y-68618842D01*
X182360500Y-68461158D01*
X182360500Y-68461155D01*
X182360499Y-68461153D01*
X182329738Y-68306510D01*
X182329737Y-68306503D01*
X182329735Y-68306498D01*
X182269397Y-68160827D01*
X182269390Y-68160814D01*
X182181789Y-68029711D01*
X182181786Y-68029707D01*
X182070292Y-67918213D01*
X182070288Y-67918210D01*
X181939185Y-67830609D01*
X181939172Y-67830602D01*
X181849276Y-67793367D01*
X181793501Y-67770264D01*
X181793489Y-67770261D01*
X181638845Y-67739500D01*
X181638842Y-67739500D01*
X181481158Y-67739500D01*
X181481155Y-67739500D01*
X181326510Y-67770261D01*
X181326498Y-67770264D01*
X181180827Y-67830602D01*
X181180814Y-67830609D01*
X181049125Y-67918602D01*
X180982447Y-67939480D01*
X180980234Y-67939500D01*
X179820097Y-67939500D01*
X179753058Y-67919815D01*
X179732416Y-67903181D01*
X179511370Y-67682135D01*
X186609500Y-67682135D01*
X186609500Y-69477870D01*
X186609501Y-69477876D01*
X186615908Y-69537483D01*
X186666202Y-69672328D01*
X186666206Y-69672335D01*
X186752452Y-69787544D01*
X186752455Y-69787547D01*
X186867664Y-69873793D01*
X186867671Y-69873797D01*
X187002517Y-69924091D01*
X187002516Y-69924091D01*
X187009444Y-69924835D01*
X187062127Y-69930500D01*
X188857872Y-69930499D01*
X188917483Y-69924091D01*
X189052331Y-69873796D01*
X189167546Y-69787546D01*
X189253796Y-69672331D01*
X189304091Y-69537483D01*
X189310500Y-69477873D01*
X189310499Y-67682128D01*
X189304091Y-67622517D01*
X189253796Y-67487669D01*
X189253795Y-67487668D01*
X189253793Y-67487664D01*
X189167547Y-67372455D01*
X189167544Y-67372452D01*
X189052335Y-67286206D01*
X189052328Y-67286202D01*
X188917482Y-67235908D01*
X188917483Y-67235908D01*
X188857883Y-67229501D01*
X188857881Y-67229500D01*
X188857873Y-67229500D01*
X188857864Y-67229500D01*
X187062129Y-67229500D01*
X187062123Y-67229501D01*
X187002516Y-67235908D01*
X186867671Y-67286202D01*
X186867664Y-67286206D01*
X186752455Y-67372452D01*
X186752452Y-67372455D01*
X186666206Y-67487664D01*
X186666202Y-67487671D01*
X186615908Y-67622517D01*
X186609501Y-67682116D01*
X186609501Y-67682123D01*
X186609500Y-67682135D01*
X179511370Y-67682135D01*
X178254574Y-66425339D01*
X178221089Y-66364016D01*
X178220638Y-66361849D01*
X178189738Y-66206510D01*
X178189737Y-66206503D01*
X178189735Y-66206498D01*
X178129397Y-66060827D01*
X178129390Y-66060814D01*
X178041789Y-65929711D01*
X178041786Y-65929707D01*
X177930292Y-65818213D01*
X177930288Y-65818210D01*
X177799185Y-65730609D01*
X177799172Y-65730602D01*
X177653501Y-65670264D01*
X177653489Y-65670261D01*
X177498845Y-65639500D01*
X177498842Y-65639500D01*
X177341158Y-65639500D01*
X177341155Y-65639500D01*
X177186510Y-65670261D01*
X177186498Y-65670264D01*
X177040827Y-65730602D01*
X177040814Y-65730609D01*
X176909711Y-65818210D01*
X176909707Y-65818213D01*
X176798213Y-65929707D01*
X176798210Y-65929711D01*
X176710609Y-66060814D01*
X176710602Y-66060827D01*
X176650264Y-66206498D01*
X176650261Y-66206510D01*
X176619500Y-66361153D01*
X165600500Y-66361153D01*
X165600500Y-62602155D01*
X168830000Y-62602155D01*
X168830000Y-63250000D01*
X169746988Y-63250000D01*
X169714075Y-63307007D01*
X169680000Y-63434174D01*
X169680000Y-63565826D01*
X169714075Y-63692993D01*
X169746988Y-63750000D01*
X168830000Y-63750000D01*
X168830000Y-64397844D01*
X168836401Y-64457372D01*
X168836403Y-64457379D01*
X168886645Y-64592086D01*
X168886649Y-64592093D01*
X168972809Y-64707187D01*
X168972812Y-64707190D01*
X169087906Y-64793350D01*
X169087913Y-64793354D01*
X169222620Y-64843596D01*
X169222627Y-64843598D01*
X169282155Y-64849999D01*
X169282172Y-64850000D01*
X169930000Y-64850000D01*
X169930000Y-63933012D01*
X169987007Y-63965925D01*
X170114174Y-64000000D01*
X170245826Y-64000000D01*
X170372993Y-63965925D01*
X170430000Y-63933012D01*
X170430000Y-64850000D01*
X171077828Y-64850000D01*
X171077844Y-64849999D01*
X171137372Y-64843598D01*
X171137379Y-64843596D01*
X171272086Y-64793354D01*
X171272093Y-64793350D01*
X171387187Y-64707190D01*
X171387190Y-64707187D01*
X171473350Y-64592093D01*
X171473354Y-64592086D01*
X171523596Y-64457379D01*
X171523598Y-64457372D01*
X171529999Y-64397844D01*
X171530000Y-64397827D01*
X171530000Y-63750000D01*
X170613012Y-63750000D01*
X170645925Y-63692993D01*
X170680000Y-63565826D01*
X170680000Y-63434174D01*
X170645925Y-63307007D01*
X170613012Y-63250000D01*
X171530000Y-63250000D01*
X171530000Y-62602164D01*
X171529997Y-62602135D01*
X186609500Y-62602135D01*
X186609500Y-64397870D01*
X186609501Y-64397876D01*
X186615908Y-64457483D01*
X186666202Y-64592328D01*
X186666206Y-64592335D01*
X186752452Y-64707544D01*
X186752455Y-64707547D01*
X186867664Y-64793793D01*
X186867671Y-64793797D01*
X187002517Y-64844091D01*
X187002516Y-64844091D01*
X187009444Y-64844835D01*
X187062127Y-64850500D01*
X188857872Y-64850499D01*
X188917483Y-64844091D01*
X189052331Y-64793796D01*
X189167546Y-64707546D01*
X189253796Y-64592331D01*
X189304091Y-64457483D01*
X189310500Y-64397873D01*
X189310499Y-62602128D01*
X189304091Y-62542517D01*
X189253884Y-62407906D01*
X189253797Y-62407671D01*
X189253793Y-62407664D01*
X189167547Y-62292455D01*
X189167544Y-62292452D01*
X189052335Y-62206206D01*
X189052328Y-62206202D01*
X188917482Y-62155908D01*
X188917483Y-62155908D01*
X188857883Y-62149501D01*
X188857881Y-62149500D01*
X188857873Y-62149500D01*
X188857864Y-62149500D01*
X187062129Y-62149500D01*
X187062123Y-62149501D01*
X187002516Y-62155908D01*
X186867671Y-62206202D01*
X186867664Y-62206206D01*
X186752455Y-62292452D01*
X186752452Y-62292455D01*
X186666206Y-62407664D01*
X186666202Y-62407671D01*
X186615908Y-62542517D01*
X186609501Y-62602116D01*
X186609501Y-62602123D01*
X186609500Y-62602135D01*
X171529997Y-62602135D01*
X171523598Y-62542627D01*
X171523596Y-62542620D01*
X171473354Y-62407913D01*
X171473350Y-62407906D01*
X171387190Y-62292812D01*
X171387187Y-62292809D01*
X171272093Y-62206649D01*
X171272086Y-62206645D01*
X171137379Y-62156403D01*
X171137372Y-62156401D01*
X171077844Y-62150000D01*
X170430000Y-62150000D01*
X170430000Y-63066988D01*
X170372993Y-63034075D01*
X170245826Y-63000000D01*
X170114174Y-63000000D01*
X169987007Y-63034075D01*
X169930000Y-63066988D01*
X169930000Y-62150000D01*
X169282155Y-62150000D01*
X169222627Y-62156401D01*
X169222620Y-62156403D01*
X169087913Y-62206645D01*
X169087906Y-62206649D01*
X168972812Y-62292809D01*
X168972809Y-62292812D01*
X168886649Y-62407906D01*
X168886645Y-62407913D01*
X168836403Y-62542620D01*
X168836401Y-62542627D01*
X168830000Y-62602155D01*
X165600500Y-62602155D01*
X165600500Y-57522135D01*
X168829500Y-57522135D01*
X168829500Y-59317870D01*
X168829501Y-59317876D01*
X168835908Y-59377483D01*
X168886202Y-59512328D01*
X168886206Y-59512335D01*
X168972452Y-59627544D01*
X168972455Y-59627547D01*
X169087664Y-59713793D01*
X169087671Y-59713797D01*
X169222517Y-59764091D01*
X169222516Y-59764091D01*
X169229444Y-59764835D01*
X169282127Y-59770500D01*
X171077872Y-59770499D01*
X171137483Y-59764091D01*
X171272331Y-59713796D01*
X171387546Y-59627546D01*
X171473796Y-59512331D01*
X171524091Y-59377483D01*
X171530500Y-59317873D01*
X171530499Y-57522135D01*
X186609500Y-57522135D01*
X186609500Y-59317870D01*
X186609501Y-59317876D01*
X186615908Y-59377483D01*
X186666202Y-59512328D01*
X186666206Y-59512335D01*
X186752452Y-59627544D01*
X186752455Y-59627547D01*
X186867664Y-59713793D01*
X186867671Y-59713797D01*
X187002517Y-59764091D01*
X187002516Y-59764091D01*
X187009444Y-59764835D01*
X187062127Y-59770500D01*
X188857872Y-59770499D01*
X188917483Y-59764091D01*
X189052331Y-59713796D01*
X189167546Y-59627546D01*
X189253796Y-59512331D01*
X189304091Y-59377483D01*
X189310500Y-59317873D01*
X189310499Y-57522128D01*
X189304091Y-57462517D01*
X189253796Y-57327669D01*
X189253795Y-57327668D01*
X189253793Y-57327664D01*
X189167547Y-57212455D01*
X189167544Y-57212452D01*
X189052335Y-57126206D01*
X189052328Y-57126202D01*
X188917482Y-57075908D01*
X188917483Y-57075908D01*
X188857883Y-57069501D01*
X188857881Y-57069500D01*
X188857873Y-57069500D01*
X188857864Y-57069500D01*
X187062129Y-57069500D01*
X187062123Y-57069501D01*
X187002516Y-57075908D01*
X186867671Y-57126202D01*
X186867664Y-57126206D01*
X186752455Y-57212452D01*
X186752452Y-57212455D01*
X186666206Y-57327664D01*
X186666202Y-57327671D01*
X186615908Y-57462517D01*
X186609501Y-57522116D01*
X186609501Y-57522123D01*
X186609500Y-57522135D01*
X171530499Y-57522135D01*
X171530499Y-57522128D01*
X171524091Y-57462517D01*
X171473796Y-57327669D01*
X171473795Y-57327668D01*
X171473793Y-57327664D01*
X171387547Y-57212455D01*
X171387544Y-57212452D01*
X171272335Y-57126206D01*
X171272328Y-57126202D01*
X171137482Y-57075908D01*
X171137483Y-57075908D01*
X171077883Y-57069501D01*
X171077881Y-57069500D01*
X171077873Y-57069500D01*
X171077864Y-57069500D01*
X169282129Y-57069500D01*
X169282123Y-57069501D01*
X169222516Y-57075908D01*
X169087671Y-57126202D01*
X169087664Y-57126206D01*
X168972455Y-57212452D01*
X168972452Y-57212455D01*
X168886206Y-57327664D01*
X168886202Y-57327671D01*
X168835908Y-57462517D01*
X168829501Y-57522116D01*
X168829501Y-57522123D01*
X168829500Y-57522135D01*
X165600500Y-57522135D01*
X165600500Y-56343750D01*
X165600726Y-56336263D01*
X165618271Y-56046205D01*
X165620076Y-56031340D01*
X165671780Y-55749201D01*
X165675364Y-55734663D01*
X165752096Y-55488422D01*
X165760696Y-55460822D01*
X165765998Y-55446841D01*
X165883731Y-55185249D01*
X165890676Y-55172016D01*
X166039080Y-54926526D01*
X166047567Y-54914230D01*
X166224480Y-54688417D01*
X166234395Y-54677226D01*
X166437226Y-54474395D01*
X166448417Y-54464480D01*
X166674230Y-54287567D01*
X166686526Y-54279080D01*
X166932016Y-54130676D01*
X166945249Y-54123731D01*
X167206841Y-54005998D01*
X167220822Y-54000696D01*
X167494668Y-53915362D01*
X167509197Y-53911780D01*
X167791344Y-53860075D01*
X167806201Y-53858271D01*
X168096264Y-53840726D01*
X168103751Y-53840500D01*
X168165892Y-53840500D01*
X189974108Y-53840500D01*
X190036249Y-53840500D01*
X190043736Y-53840726D01*
G37*
%TD.AperFunction*%
%TD*%
M02*
