%TF.GenerationSoftware,KiCad,Pcbnew,9.0.6*%
%TF.CreationDate,2025-12-13T19:58:55+05:30*%
%TF.ProjectId,Assignment1,41737369-676e-46d6-956e-74312e6b6963,rev?*%
%TF.SameCoordinates,Original*%
%TF.FileFunction,Legend,Top*%
%TF.FilePolarity,Positive*%
%FSLAX46Y46*%
G04 Gerber Fmt 4.6, Leading zero omitted, Abs format (unit mm)*
G04 Created by KiCad (PCBNEW 9.0.6) date 2025-12-13 19:58:55*
%MOMM*%
%LPD*%
G01*
G04 APERTURE LIST*
%ADD10C,0.150000*%
%ADD11C,0.120000*%
%ADD12C,0.100000*%
G04 APERTURE END LIST*
D10*
X186568207Y-82074580D02*
X186520588Y-82122200D01*
X186520588Y-82122200D02*
X186377731Y-82169819D01*
X186377731Y-82169819D02*
X186282493Y-82169819D01*
X186282493Y-82169819D02*
X186139636Y-82122200D01*
X186139636Y-82122200D02*
X186044398Y-82026961D01*
X186044398Y-82026961D02*
X185996779Y-81931723D01*
X185996779Y-81931723D02*
X185949160Y-81741247D01*
X185949160Y-81741247D02*
X185949160Y-81598390D01*
X185949160Y-81598390D02*
X185996779Y-81407914D01*
X185996779Y-81407914D02*
X186044398Y-81312676D01*
X186044398Y-81312676D02*
X186139636Y-81217438D01*
X186139636Y-81217438D02*
X186282493Y-81169819D01*
X186282493Y-81169819D02*
X186377731Y-81169819D01*
X186377731Y-81169819D02*
X186520588Y-81217438D01*
X186520588Y-81217438D02*
X186568207Y-81265057D01*
X186949160Y-81265057D02*
X186996779Y-81217438D01*
X186996779Y-81217438D02*
X187092017Y-81169819D01*
X187092017Y-81169819D02*
X187330112Y-81169819D01*
X187330112Y-81169819D02*
X187425350Y-81217438D01*
X187425350Y-81217438D02*
X187472969Y-81265057D01*
X187472969Y-81265057D02*
X187520588Y-81360295D01*
X187520588Y-81360295D02*
X187520588Y-81455533D01*
X187520588Y-81455533D02*
X187472969Y-81598390D01*
X187472969Y-81598390D02*
X186901541Y-82169819D01*
X186901541Y-82169819D02*
X187520588Y-82169819D01*
X176468207Y-82034580D02*
X176420588Y-82082200D01*
X176420588Y-82082200D02*
X176277731Y-82129819D01*
X176277731Y-82129819D02*
X176182493Y-82129819D01*
X176182493Y-82129819D02*
X176039636Y-82082200D01*
X176039636Y-82082200D02*
X175944398Y-81986961D01*
X175944398Y-81986961D02*
X175896779Y-81891723D01*
X175896779Y-81891723D02*
X175849160Y-81701247D01*
X175849160Y-81701247D02*
X175849160Y-81558390D01*
X175849160Y-81558390D02*
X175896779Y-81367914D01*
X175896779Y-81367914D02*
X175944398Y-81272676D01*
X175944398Y-81272676D02*
X176039636Y-81177438D01*
X176039636Y-81177438D02*
X176182493Y-81129819D01*
X176182493Y-81129819D02*
X176277731Y-81129819D01*
X176277731Y-81129819D02*
X176420588Y-81177438D01*
X176420588Y-81177438D02*
X176468207Y-81225057D01*
X177420588Y-82129819D02*
X176849160Y-82129819D01*
X177134874Y-82129819D02*
X177134874Y-81129819D01*
X177134874Y-81129819D02*
X177039636Y-81272676D01*
X177039636Y-81272676D02*
X176944398Y-81367914D01*
X176944398Y-81367914D02*
X176849160Y-81415533D01*
X177738207Y-72199819D02*
X177404874Y-71723628D01*
X177166779Y-72199819D02*
X177166779Y-71199819D01*
X177166779Y-71199819D02*
X177547731Y-71199819D01*
X177547731Y-71199819D02*
X177642969Y-71247438D01*
X177642969Y-71247438D02*
X177690588Y-71295057D01*
X177690588Y-71295057D02*
X177738207Y-71390295D01*
X177738207Y-71390295D02*
X177738207Y-71533152D01*
X177738207Y-71533152D02*
X177690588Y-71628390D01*
X177690588Y-71628390D02*
X177642969Y-71676009D01*
X177642969Y-71676009D02*
X177547731Y-71723628D01*
X177547731Y-71723628D02*
X177166779Y-71723628D01*
X178119160Y-71295057D02*
X178166779Y-71247438D01*
X178166779Y-71247438D02*
X178262017Y-71199819D01*
X178262017Y-71199819D02*
X178500112Y-71199819D01*
X178500112Y-71199819D02*
X178595350Y-71247438D01*
X178595350Y-71247438D02*
X178642969Y-71295057D01*
X178642969Y-71295057D02*
X178690588Y-71390295D01*
X178690588Y-71390295D02*
X178690588Y-71485533D01*
X178690588Y-71485533D02*
X178642969Y-71628390D01*
X178642969Y-71628390D02*
X178071541Y-72199819D01*
X178071541Y-72199819D02*
X178690588Y-72199819D01*
X185458207Y-72199819D02*
X185124874Y-71723628D01*
X184886779Y-72199819D02*
X184886779Y-71199819D01*
X184886779Y-71199819D02*
X185267731Y-71199819D01*
X185267731Y-71199819D02*
X185362969Y-71247438D01*
X185362969Y-71247438D02*
X185410588Y-71295057D01*
X185410588Y-71295057D02*
X185458207Y-71390295D01*
X185458207Y-71390295D02*
X185458207Y-71533152D01*
X185458207Y-71533152D02*
X185410588Y-71628390D01*
X185410588Y-71628390D02*
X185362969Y-71676009D01*
X185362969Y-71676009D02*
X185267731Y-71723628D01*
X185267731Y-71723628D02*
X184886779Y-71723628D01*
X186410588Y-72199819D02*
X185839160Y-72199819D01*
X186124874Y-72199819D02*
X186124874Y-71199819D01*
X186124874Y-71199819D02*
X186029636Y-71342676D01*
X186029636Y-71342676D02*
X185934398Y-71437914D01*
X185934398Y-71437914D02*
X185839160Y-71485533D01*
X186959160Y-66622200D02*
X187102017Y-66669819D01*
X187102017Y-66669819D02*
X187340112Y-66669819D01*
X187340112Y-66669819D02*
X187435350Y-66622200D01*
X187435350Y-66622200D02*
X187482969Y-66574580D01*
X187482969Y-66574580D02*
X187530588Y-66479342D01*
X187530588Y-66479342D02*
X187530588Y-66384104D01*
X187530588Y-66384104D02*
X187482969Y-66288866D01*
X187482969Y-66288866D02*
X187435350Y-66241247D01*
X187435350Y-66241247D02*
X187340112Y-66193628D01*
X187340112Y-66193628D02*
X187149636Y-66146009D01*
X187149636Y-66146009D02*
X187054398Y-66098390D01*
X187054398Y-66098390D02*
X187006779Y-66050771D01*
X187006779Y-66050771D02*
X186959160Y-65955533D01*
X186959160Y-65955533D02*
X186959160Y-65860295D01*
X186959160Y-65860295D02*
X187006779Y-65765057D01*
X187006779Y-65765057D02*
X187054398Y-65717438D01*
X187054398Y-65717438D02*
X187149636Y-65669819D01*
X187149636Y-65669819D02*
X187387731Y-65669819D01*
X187387731Y-65669819D02*
X187530588Y-65717438D01*
X188530588Y-66574580D02*
X188482969Y-66622200D01*
X188482969Y-66622200D02*
X188340112Y-66669819D01*
X188340112Y-66669819D02*
X188244874Y-66669819D01*
X188244874Y-66669819D02*
X188102017Y-66622200D01*
X188102017Y-66622200D02*
X188006779Y-66526961D01*
X188006779Y-66526961D02*
X187959160Y-66431723D01*
X187959160Y-66431723D02*
X187911541Y-66241247D01*
X187911541Y-66241247D02*
X187911541Y-66098390D01*
X187911541Y-66098390D02*
X187959160Y-65907914D01*
X187959160Y-65907914D02*
X188006779Y-65812676D01*
X188006779Y-65812676D02*
X188102017Y-65717438D01*
X188102017Y-65717438D02*
X188244874Y-65669819D01*
X188244874Y-65669819D02*
X188340112Y-65669819D01*
X188340112Y-65669819D02*
X188482969Y-65717438D01*
X188482969Y-65717438D02*
X188530588Y-65765057D01*
X189435350Y-66669819D02*
X188959160Y-66669819D01*
X188959160Y-66669819D02*
X188959160Y-65669819D01*
X186639160Y-61492200D02*
X186782017Y-61539819D01*
X186782017Y-61539819D02*
X187020112Y-61539819D01*
X187020112Y-61539819D02*
X187115350Y-61492200D01*
X187115350Y-61492200D02*
X187162969Y-61444580D01*
X187162969Y-61444580D02*
X187210588Y-61349342D01*
X187210588Y-61349342D02*
X187210588Y-61254104D01*
X187210588Y-61254104D02*
X187162969Y-61158866D01*
X187162969Y-61158866D02*
X187115350Y-61111247D01*
X187115350Y-61111247D02*
X187020112Y-61063628D01*
X187020112Y-61063628D02*
X186829636Y-61016009D01*
X186829636Y-61016009D02*
X186734398Y-60968390D01*
X186734398Y-60968390D02*
X186686779Y-60920771D01*
X186686779Y-60920771D02*
X186639160Y-60825533D01*
X186639160Y-60825533D02*
X186639160Y-60730295D01*
X186639160Y-60730295D02*
X186686779Y-60635057D01*
X186686779Y-60635057D02*
X186734398Y-60587438D01*
X186734398Y-60587438D02*
X186829636Y-60539819D01*
X186829636Y-60539819D02*
X187067731Y-60539819D01*
X187067731Y-60539819D02*
X187210588Y-60587438D01*
X187639160Y-61539819D02*
X187639160Y-60539819D01*
X187639160Y-60539819D02*
X187877255Y-60539819D01*
X187877255Y-60539819D02*
X188020112Y-60587438D01*
X188020112Y-60587438D02*
X188115350Y-60682676D01*
X188115350Y-60682676D02*
X188162969Y-60777914D01*
X188162969Y-60777914D02*
X188210588Y-60968390D01*
X188210588Y-60968390D02*
X188210588Y-61111247D01*
X188210588Y-61111247D02*
X188162969Y-61301723D01*
X188162969Y-61301723D02*
X188115350Y-61396961D01*
X188115350Y-61396961D02*
X188020112Y-61492200D01*
X188020112Y-61492200D02*
X187877255Y-61539819D01*
X187877255Y-61539819D02*
X187639160Y-61539819D01*
X188591541Y-61254104D02*
X189067731Y-61254104D01*
X188496303Y-61539819D02*
X188829636Y-60539819D01*
X188829636Y-60539819D02*
X189162969Y-61539819D01*
X168966779Y-66599819D02*
X168966779Y-65599819D01*
X169442969Y-66599819D02*
X169442969Y-65599819D01*
X169442969Y-65599819D02*
X170014397Y-66599819D01*
X170014397Y-66599819D02*
X170014397Y-65599819D01*
X170347731Y-65599819D02*
X170919159Y-65599819D01*
X170633445Y-66599819D02*
X170633445Y-65599819D01*
X171204874Y-65695057D02*
X171252493Y-65647438D01*
X171252493Y-65647438D02*
X171347731Y-65599819D01*
X171347731Y-65599819D02*
X171585826Y-65599819D01*
X171585826Y-65599819D02*
X171681064Y-65647438D01*
X171681064Y-65647438D02*
X171728683Y-65695057D01*
X171728683Y-65695057D02*
X171776302Y-65790295D01*
X171776302Y-65790295D02*
X171776302Y-65885533D01*
X171776302Y-65885533D02*
X171728683Y-66028390D01*
X171728683Y-66028390D02*
X171157255Y-66599819D01*
X171157255Y-66599819D02*
X171776302Y-66599819D01*
X169016779Y-71739819D02*
X169016779Y-70739819D01*
X169492969Y-71739819D02*
X169492969Y-70739819D01*
X169492969Y-70739819D02*
X170064397Y-71739819D01*
X170064397Y-71739819D02*
X170064397Y-70739819D01*
X170397731Y-70739819D02*
X170969159Y-70739819D01*
X170683445Y-71739819D02*
X170683445Y-70739819D01*
X171826302Y-71739819D02*
X171254874Y-71739819D01*
X171540588Y-71739819D02*
X171540588Y-70739819D01*
X171540588Y-70739819D02*
X171445350Y-70882676D01*
X171445350Y-70882676D02*
X171350112Y-70977914D01*
X171350112Y-70977914D02*
X171254874Y-71025533D01*
X186769160Y-56522200D02*
X186912017Y-56569819D01*
X186912017Y-56569819D02*
X187150112Y-56569819D01*
X187150112Y-56569819D02*
X187245350Y-56522200D01*
X187245350Y-56522200D02*
X187292969Y-56474580D01*
X187292969Y-56474580D02*
X187340588Y-56379342D01*
X187340588Y-56379342D02*
X187340588Y-56284104D01*
X187340588Y-56284104D02*
X187292969Y-56188866D01*
X187292969Y-56188866D02*
X187245350Y-56141247D01*
X187245350Y-56141247D02*
X187150112Y-56093628D01*
X187150112Y-56093628D02*
X186959636Y-56046009D01*
X186959636Y-56046009D02*
X186864398Y-55998390D01*
X186864398Y-55998390D02*
X186816779Y-55950771D01*
X186816779Y-55950771D02*
X186769160Y-55855533D01*
X186769160Y-55855533D02*
X186769160Y-55760295D01*
X186769160Y-55760295D02*
X186816779Y-55665057D01*
X186816779Y-55665057D02*
X186864398Y-55617438D01*
X186864398Y-55617438D02*
X186959636Y-55569819D01*
X186959636Y-55569819D02*
X187197731Y-55569819D01*
X187197731Y-55569819D02*
X187340588Y-55617438D01*
X187769160Y-56569819D02*
X187769160Y-55569819D01*
X187769160Y-55569819D02*
X188007255Y-55569819D01*
X188007255Y-55569819D02*
X188150112Y-55617438D01*
X188150112Y-55617438D02*
X188245350Y-55712676D01*
X188245350Y-55712676D02*
X188292969Y-55807914D01*
X188292969Y-55807914D02*
X188340588Y-55998390D01*
X188340588Y-55998390D02*
X188340588Y-56141247D01*
X188340588Y-56141247D02*
X188292969Y-56331723D01*
X188292969Y-56331723D02*
X188245350Y-56426961D01*
X188245350Y-56426961D02*
X188150112Y-56522200D01*
X188150112Y-56522200D02*
X188007255Y-56569819D01*
X188007255Y-56569819D02*
X187769160Y-56569819D01*
X188959636Y-55569819D02*
X189150112Y-55569819D01*
X189150112Y-55569819D02*
X189245350Y-55617438D01*
X189245350Y-55617438D02*
X189340588Y-55712676D01*
X189340588Y-55712676D02*
X189388207Y-55903152D01*
X189388207Y-55903152D02*
X189388207Y-56236485D01*
X189388207Y-56236485D02*
X189340588Y-56426961D01*
X189340588Y-56426961D02*
X189245350Y-56522200D01*
X189245350Y-56522200D02*
X189150112Y-56569819D01*
X189150112Y-56569819D02*
X188959636Y-56569819D01*
X188959636Y-56569819D02*
X188864398Y-56522200D01*
X188864398Y-56522200D02*
X188769160Y-56426961D01*
X188769160Y-56426961D02*
X188721541Y-56236485D01*
X188721541Y-56236485D02*
X188721541Y-55903152D01*
X188721541Y-55903152D02*
X188769160Y-55712676D01*
X188769160Y-55712676D02*
X188864398Y-55617438D01*
X188864398Y-55617438D02*
X188959636Y-55569819D01*
X168803922Y-60539819D02*
X169137255Y-61539819D01*
X169137255Y-61539819D02*
X169470588Y-60539819D01*
X170375350Y-61444580D02*
X170327731Y-61492200D01*
X170327731Y-61492200D02*
X170184874Y-61539819D01*
X170184874Y-61539819D02*
X170089636Y-61539819D01*
X170089636Y-61539819D02*
X169946779Y-61492200D01*
X169946779Y-61492200D02*
X169851541Y-61396961D01*
X169851541Y-61396961D02*
X169803922Y-61301723D01*
X169803922Y-61301723D02*
X169756303Y-61111247D01*
X169756303Y-61111247D02*
X169756303Y-60968390D01*
X169756303Y-60968390D02*
X169803922Y-60777914D01*
X169803922Y-60777914D02*
X169851541Y-60682676D01*
X169851541Y-60682676D02*
X169946779Y-60587438D01*
X169946779Y-60587438D02*
X170089636Y-60539819D01*
X170089636Y-60539819D02*
X170184874Y-60539819D01*
X170184874Y-60539819D02*
X170327731Y-60587438D01*
X170327731Y-60587438D02*
X170375350Y-60635057D01*
X171375350Y-61444580D02*
X171327731Y-61492200D01*
X171327731Y-61492200D02*
X171184874Y-61539819D01*
X171184874Y-61539819D02*
X171089636Y-61539819D01*
X171089636Y-61539819D02*
X170946779Y-61492200D01*
X170946779Y-61492200D02*
X170851541Y-61396961D01*
X170851541Y-61396961D02*
X170803922Y-61301723D01*
X170803922Y-61301723D02*
X170756303Y-61111247D01*
X170756303Y-61111247D02*
X170756303Y-60968390D01*
X170756303Y-60968390D02*
X170803922Y-60777914D01*
X170803922Y-60777914D02*
X170851541Y-60682676D01*
X170851541Y-60682676D02*
X170946779Y-60587438D01*
X170946779Y-60587438D02*
X171089636Y-60539819D01*
X171089636Y-60539819D02*
X171184874Y-60539819D01*
X171184874Y-60539819D02*
X171327731Y-60587438D01*
X171327731Y-60587438D02*
X171375350Y-60635057D01*
X169540588Y-55587438D02*
X169445350Y-55539819D01*
X169445350Y-55539819D02*
X169302493Y-55539819D01*
X169302493Y-55539819D02*
X169159636Y-55587438D01*
X169159636Y-55587438D02*
X169064398Y-55682676D01*
X169064398Y-55682676D02*
X169016779Y-55777914D01*
X169016779Y-55777914D02*
X168969160Y-55968390D01*
X168969160Y-55968390D02*
X168969160Y-56111247D01*
X168969160Y-56111247D02*
X169016779Y-56301723D01*
X169016779Y-56301723D02*
X169064398Y-56396961D01*
X169064398Y-56396961D02*
X169159636Y-56492200D01*
X169159636Y-56492200D02*
X169302493Y-56539819D01*
X169302493Y-56539819D02*
X169397731Y-56539819D01*
X169397731Y-56539819D02*
X169540588Y-56492200D01*
X169540588Y-56492200D02*
X169588207Y-56444580D01*
X169588207Y-56444580D02*
X169588207Y-56111247D01*
X169588207Y-56111247D02*
X169397731Y-56111247D01*
X170016779Y-56539819D02*
X170016779Y-55539819D01*
X170016779Y-55539819D02*
X170588207Y-56539819D01*
X170588207Y-56539819D02*
X170588207Y-55539819D01*
X171064398Y-56539819D02*
X171064398Y-55539819D01*
X171064398Y-55539819D02*
X171302493Y-55539819D01*
X171302493Y-55539819D02*
X171445350Y-55587438D01*
X171445350Y-55587438D02*
X171540588Y-55682676D01*
X171540588Y-55682676D02*
X171588207Y-55777914D01*
X171588207Y-55777914D02*
X171635826Y-55968390D01*
X171635826Y-55968390D02*
X171635826Y-56111247D01*
X171635826Y-56111247D02*
X171588207Y-56301723D01*
X171588207Y-56301723D02*
X171540588Y-56396961D01*
X171540588Y-56396961D02*
X171445350Y-56492200D01*
X171445350Y-56492200D02*
X171302493Y-56539819D01*
X171302493Y-56539819D02*
X171064398Y-56539819D01*
X183355595Y-68284819D02*
X183355595Y-69094342D01*
X183355595Y-69094342D02*
X183403214Y-69189580D01*
X183403214Y-69189580D02*
X183450833Y-69237200D01*
X183450833Y-69237200D02*
X183546071Y-69284819D01*
X183546071Y-69284819D02*
X183736547Y-69284819D01*
X183736547Y-69284819D02*
X183831785Y-69237200D01*
X183831785Y-69237200D02*
X183879404Y-69189580D01*
X183879404Y-69189580D02*
X183927023Y-69094342D01*
X183927023Y-69094342D02*
X183927023Y-68284819D01*
X184927023Y-69284819D02*
X184355595Y-69284819D01*
X184641309Y-69284819D02*
X184641309Y-68284819D01*
X184641309Y-68284819D02*
X184546071Y-68427676D01*
X184546071Y-68427676D02*
X184450833Y-68522914D01*
X184450833Y-68522914D02*
X184355595Y-68570533D01*
D11*
%TO.C,R2*%
X175880000Y-74580000D02*
X179720000Y-74580000D01*
X175880000Y-72740000D02*
X179720000Y-72740000D01*
%TO.C,GND*%
X168800000Y-57040000D02*
X170180000Y-57040000D01*
X168800000Y-58420000D02*
X168800000Y-57040000D01*
X168800000Y-59690000D02*
X168800000Y-59800000D01*
X168800000Y-59690000D02*
X171560000Y-59690000D01*
X168800000Y-59800000D02*
X171560000Y-59800000D01*
X171560000Y-59690000D02*
X171560000Y-59800000D01*
%TO.C,SDA*%
X186580000Y-67200000D02*
X187960000Y-67200000D01*
X186580000Y-68580000D02*
X186580000Y-67200000D01*
X186580000Y-69850000D02*
X186580000Y-69960000D01*
X186580000Y-69850000D02*
X189340000Y-69850000D01*
X186580000Y-69960000D02*
X189340000Y-69960000D01*
X189340000Y-69850000D02*
X189340000Y-69960000D01*
%TO.C,SCL*%
X186580000Y-62120000D02*
X187960000Y-62120000D01*
X186580000Y-63500000D02*
X186580000Y-62120000D01*
X186580000Y-64770000D02*
X186580000Y-64880000D01*
X186580000Y-64770000D02*
X189340000Y-64770000D01*
X186580000Y-64880000D02*
X189340000Y-64880000D01*
X189340000Y-64770000D02*
X189340000Y-64880000D01*
D12*
%TO.C,U1*%
X180267500Y-67230000D02*
X180487500Y-67230000D01*
X180267500Y-67230000D02*
X180267500Y-67950000D01*
X182967500Y-67430000D02*
X182967500Y-67950000D01*
X182967500Y-69710000D02*
X182967500Y-70430000D01*
X182967500Y-70430000D02*
X182747500Y-70430000D01*
X180487500Y-70430000D02*
X180267500Y-70430000D01*
X180267500Y-70430000D02*
X180267500Y-69710000D01*
X183327500Y-67230000D02*
X182967500Y-67230000D01*
X182967500Y-66870000D01*
X183327500Y-67230000D01*
G36*
X183327500Y-67230000D02*
G01*
X182967500Y-67230000D01*
X182967500Y-66870000D01*
X183327500Y-67230000D01*
G37*
D11*
%TO.C,R1*%
X183500000Y-72740000D02*
X187340000Y-72740000D01*
X183500000Y-74580000D02*
X187340000Y-74580000D01*
%TO.C,C1*%
X175785000Y-82900000D02*
X177315000Y-82900000D01*
X177315000Y-84740000D02*
X175785000Y-84740000D01*
%TO.C,VCC*%
X168800000Y-62120000D02*
X170180000Y-62120000D01*
X168800000Y-63500000D02*
X168800000Y-62120000D01*
X168800000Y-64770000D02*
X168800000Y-64880000D01*
X168800000Y-64770000D02*
X171560000Y-64770000D01*
X168800000Y-64880000D02*
X171560000Y-64880000D01*
X171560000Y-64770000D02*
X171560000Y-64880000D01*
%TO.C,SDO*%
X186580000Y-57040000D02*
X187960000Y-57040000D01*
X186580000Y-58420000D02*
X186580000Y-57040000D01*
X186580000Y-59690000D02*
X186580000Y-59800000D01*
X186580000Y-59690000D02*
X189340000Y-59690000D01*
X186580000Y-59800000D02*
X189340000Y-59800000D01*
X189340000Y-59690000D02*
X189340000Y-59800000D01*
%TO.C,C2*%
X185945000Y-82900000D02*
X187475000Y-82900000D01*
X187475000Y-84740000D02*
X185945000Y-84740000D01*
%TO.C,INT2*%
X168800000Y-72280000D02*
X170180000Y-72280000D01*
X168800000Y-73660000D02*
X168800000Y-72280000D01*
X168800000Y-74930000D02*
X168800000Y-75040000D01*
X168800000Y-74930000D02*
X171560000Y-74930000D01*
X168800000Y-75040000D02*
X171560000Y-75040000D01*
X171560000Y-74930000D02*
X171560000Y-75040000D01*
%TO.C,INT1*%
X168800000Y-67200000D02*
X170180000Y-67200000D01*
X168800000Y-68580000D02*
X168800000Y-67200000D01*
X168800000Y-69850000D02*
X168800000Y-69960000D01*
X168800000Y-69850000D02*
X171560000Y-69850000D01*
X168800000Y-69960000D02*
X171560000Y-69960000D01*
X171560000Y-69850000D02*
X171560000Y-69960000D01*
%TD*%
M02*
